<svg xmlns="http://www.w3.org/2000/svg" xmlns:xlink="http://www.w3.org/1999/xlink" width="505" height="336.453" viewBox="0 0 505 336.453">
  <defs>
    <clipPath id="clip-path">
      <rect width="505" height="336.453" fill="none"/>
    </clipPath>
  </defs>
  <g id="Group_32703" data-name="Group 32703" transform="translate(-60 -1160.547)">
    <g id="Scroll_Group_1" data-name="Scroll Group 1" transform="translate(60 1160.547)" clip-path="url(#clip-path)" style="isolation: isolate">
      <g id="Group_32698" data-name="Group 32698" transform="translate(-60 -1160.547)">
        <g id="Group_32696" data-name="Group 32696">
          <rect id="Rectangle_15039" data-name="Rectangle 15039" width="500" height="309" transform="translate(61 1161)" fill="#fff"/>
          <g id="Group_32687" data-name="Group 32687" transform="translate(0 -120)">
            <g id="Group_32686" data-name="Group 32686">
              <text id="_20" data-name="20" transform="translate(120 1614)" fill="#333" font-size="12" font-family="SegoeUI, Segoe UI"><tspan x="-6.469" y="0">20</tspan></text>
              <text id="_18" data-name="18" transform="translate(164 1614)" fill="#333" font-size="12" font-family="SegoeUI, Segoe UI"><tspan x="-6.469" y="0">18</tspan></text>
              <text id="_16" data-name="16" transform="translate(208 1614)" fill="#333" font-size="12" font-family="SegoeUI, Segoe UI"><tspan x="-6.469" y="0">16</tspan></text>
              <text id="_14" data-name="14" transform="translate(252 1614)" fill="#333" font-size="12" font-family="SegoeUI, Segoe UI"><tspan x="-6.469" y="0">14</tspan></text>
              <text id="_12" data-name="12" transform="translate(296 1614)" fill="#333" font-size="12" font-family="SegoeUI, Segoe UI"><tspan x="-6.469" y="0">12</tspan></text>
              <text id="_10" data-name="10" transform="translate(341 1614)" fill="#333" font-size="12" font-family="SegoeUI, Segoe UI"><tspan x="-6.469" y="0">10</tspan></text>
              <text id="_8" data-name="8" transform="translate(385 1614)" fill="#333" font-size="12" font-family="SegoeUI, Segoe UI"><tspan x="-3.234" y="0">8</tspan></text>
              <text id="_6" data-name="6" transform="translate(428 1614)" fill="#333" font-size="12" font-family="SegoeUI, Segoe UI"><tspan x="-3.234" y="0">6</tspan></text>
              <text id="_4" data-name="4" transform="translate(473 1614)" fill="#333" font-size="12" font-family="SegoeUI, Segoe UI"><tspan x="-3.234" y="0">4</tspan></text>
              <text id="_2" data-name="2" transform="translate(516 1614)" fill="#333" font-size="12" font-family="SegoeUI, Segoe UI"><tspan x="-3.234" y="0">2</tspan></text>
              <text id="_0" data-name="0" transform="translate(561 1614)" fill="#333" font-size="12" font-family="SegoeUI, Segoe UI"><tspan x="-3.234" y="0">0</tspan></text>
            </g>
            <rect id="Rectangle_15150" data-name="Rectangle 15150" width="1" height="9" transform="translate(120 1590)"/>
            <rect id="Rectangle_15151" data-name="Rectangle 15151" width="1" height="9" transform="translate(142 1590)"/>
            <rect id="Rectangle_15152" data-name="Rectangle 15152" width="1" height="9" transform="translate(164 1590)"/>
            <rect id="Rectangle_15153" data-name="Rectangle 15153" width="1" height="9" transform="translate(186 1590)"/>
            <rect id="Rectangle_15154" data-name="Rectangle 15154" width="1" height="9" transform="translate(208 1590)"/>
            <rect id="Rectangle_15155" data-name="Rectangle 15155" width="1" height="9" transform="translate(230 1590)"/>
            <rect id="Rectangle_15156" data-name="Rectangle 15156" width="1" height="9" transform="translate(252 1590)"/>
            <rect id="Rectangle_15157" data-name="Rectangle 15157" width="1" height="9" transform="translate(274 1590)"/>
            <rect id="Rectangle_15158" data-name="Rectangle 15158" width="1" height="9" transform="translate(296 1590)"/>
            <rect id="Rectangle_15159" data-name="Rectangle 15159" width="1" height="9" transform="translate(318 1590)"/>
            <rect id="Rectangle_15160" data-name="Rectangle 15160" width="1" height="9" transform="translate(340 1590)"/>
            <rect id="Rectangle_15161" data-name="Rectangle 15161" width="1" height="9" transform="translate(362 1590)"/>
            <rect id="Rectangle_15162" data-name="Rectangle 15162" width="1" height="9" transform="translate(384 1590)"/>
            <rect id="Rectangle_15163" data-name="Rectangle 15163" width="1" height="9" transform="translate(406 1590)"/>
            <rect id="Rectangle_15164" data-name="Rectangle 15164" width="1" height="9" transform="translate(428 1590)"/>
            <rect id="Rectangle_15165" data-name="Rectangle 15165" width="1" height="9" transform="translate(450 1590)"/>
            <rect id="Rectangle_15166" data-name="Rectangle 15166" width="1" height="9" transform="translate(472 1590)"/>
            <rect id="Rectangle_15167" data-name="Rectangle 15167" width="1" height="9" transform="translate(494 1590)"/>
            <rect id="Rectangle_15168" data-name="Rectangle 15168" width="1" height="9" transform="translate(516 1590)"/>
            <rect id="Rectangle_15169" data-name="Rectangle 15169" width="1" height="9" transform="translate(538 1590)"/>
            <rect id="Rectangle_15170" data-name="Rectangle 15170" width="1" height="9" transform="translate(560 1590)"/>
          </g>
        </g>
        <g id="Group_32697" data-name="Group 32697">
          <g id="Group_32478" data-name="Group 32478" transform="translate(481.111 131.462)">
            <path id="Path_28439" data-name="Path 28439" d="M0,0H1.111V309.453H0Z" transform="translate(78.889 1029.085)"/>
          </g>
          <path id="Path_30735" data-name="Path 30735" d="M-20,0H481V1H-20Z" transform="translate(80 1469)"/>
        </g>
      </g>
      <g id="Group_32685" data-name="Group 32685" transform="translate(-61 -1644.547)">
        <path id="Path_30743" data-name="Path 30743" d="M7732-12468.6v-300" transform="translate(-7544.5 14417.602)" fill="none" stroke="#ccc" stroke-width="0.8" stroke-dasharray="4 4"/>
        <path id="Path_30744" data-name="Path 30744" d="M7732-12468.6v-300" transform="translate(-7522.5 14417.602)" fill="none" stroke="#ccc" stroke-width="0.8" stroke-dasharray="4 4"/>
        <path id="Path_30736" data-name="Path 30736" d="M7732-12468.6v-300" transform="translate(-7611.5 14417.602)" fill="none" stroke="#ccc" stroke-width="0.8" stroke-dasharray="4 4"/>
        <path id="Path_30736-2" data-name="Path 30736" d="M7732-12468.6v-300" transform="translate(-7500.5 14417.602)" fill="none" stroke="#ccc" stroke-width="0.8" stroke-dasharray="4 4"/>
        <path id="Path_30736-3" data-name="Path 30736" d="M7732-12468.6v-300" transform="translate(-7478.5 14417.602)" fill="none" stroke="#ccc" stroke-width="0.8" stroke-dasharray="4 4"/>
        <path id="Path_30736-4" data-name="Path 30736" d="M7732-12468.6v-300" transform="translate(-7456.5 14417.602)" fill="none" stroke="#ccc" stroke-width="0.8" stroke-dasharray="4 4"/>
        <path id="Path_30736-5" data-name="Path 30736" d="M7732-12468.6v-300" transform="translate(-7434.5 14417.602)" fill="none" stroke="#ccc" stroke-width="0.8" stroke-dasharray="4 4"/>
        <path id="Path_30736-6" data-name="Path 30736" d="M7732-12468.6v-300" transform="translate(-7412.5 14417.602)" fill="none" stroke="#ccc" stroke-width="0.8" stroke-dasharray="4 4"/>
        <path id="Path_30736-7" data-name="Path 30736" d="M7732-12468.6v-300" transform="translate(-7390.5 14417.602)" fill="none" stroke="#ccc" stroke-width="0.8" stroke-dasharray="4 4"/>
        <path id="Path_30736-8" data-name="Path 30736" d="M7732-12468.6v-300" transform="translate(-7368.5 14417.602)" fill="none" stroke="#ccc" stroke-width="0.8" stroke-dasharray="4 4"/>
        <path id="Path_30736-9" data-name="Path 30736" d="M7732-12468.6v-300" transform="translate(-7346.5 14417.602)" fill="none" stroke="#ccc" stroke-width="0.8" stroke-dasharray="4 4"/>
        <path id="Path_30736-10" data-name="Path 30736" d="M7732-12468.6v-300" transform="translate(-7324.5 14417.602)" fill="none" stroke="#ccc" stroke-width="0.8" stroke-dasharray="4 4"/>
        <path id="Path_30736-11" data-name="Path 30736" d="M7732-12468.6v-300" transform="translate(-7302.5 14417.602)" fill="none" stroke="#ccc" stroke-width="0.8" stroke-dasharray="4 4"/>
        <path id="Path_30736-12" data-name="Path 30736" d="M7732-12468.6v-300" transform="translate(-7280.5 14417.602)" fill="none" stroke="#ccc" stroke-width="0.8" stroke-dasharray="4 4"/>
        <path id="Path_30736-13" data-name="Path 30736" d="M7732-12468.6v-300" transform="translate(-7258.5 14417.602)" fill="none" stroke="#ccc" stroke-width="0.8" stroke-dasharray="4 4"/>
        <path id="Path_30736-14" data-name="Path 30736" d="M7732-12468.6v-300" transform="translate(-7236.5 14417.602)" fill="none" stroke="#ccc" stroke-width="0.8" stroke-dasharray="4 4"/>
        <path id="Path_30736-15" data-name="Path 30736" d="M7732-12468.6v-300" transform="translate(-7214.5 14417.602)" fill="none" stroke="#ccc" stroke-width="0.8" stroke-dasharray="4 4"/>
        <path id="Path_30960" data-name="Path 30960" d="M7732-12468.6v-300" transform="translate(-7192.5 14417.602)" fill="none" stroke="#ccc" stroke-width="0.8" stroke-dasharray="4 4"/>
        <path id="Path_30961" data-name="Path 30961" d="M7732-12468.6v-300" transform="translate(-7566.5 14417.602)" fill="none" stroke="#ccc" stroke-width="0.8" stroke-dasharray="4 4"/>
        <path id="Path_31185" data-name="Path 31185" d="M7732-12468.6v-300" transform="translate(-7588.5 14417.602)" fill="none" stroke="#ccc" stroke-width="0.8" stroke-dasharray="4 4"/>
      </g>
    </g>
  </g>
</svg>
