<svg xmlns="http://www.w3.org/2000/svg" width="505" height="336.453" viewBox="0 0 505 336.453">
  <g id="Group_32702" data-name="Group 32702" transform="translate(-714 -1160.547)">
    <g id="Group_32701" data-name="Group 32701">
      <g id="Group_32699" data-name="Group 32699">
        <rect id="Rectangle_15088" data-name="Rectangle 15088" width="500" height="309" transform="translate(719 1161)" fill="#fff"/>
        <path id="Path_30735" data-name="Path 30735" d="M0,0H500V1H0Z" transform="translate(719 1469)"/>
        <g id="Group_32691" data-name="Group 32691" transform="translate(-3 -120)">
          <text id="_0" data-name="0" transform="translate(721 1614)" fill="#333" font-size="12" font-family="SegoeUI, Segoe UI"><tspan x="-3.234" y="0">0</tspan></text>
          <text id="_2" data-name="2" transform="translate(765 1614)" fill="#333" font-size="12" font-family="SegoeUI, Segoe UI"><tspan x="-3.234" y="0">2</tspan></text>
          <text id="_4" data-name="4" transform="translate(809 1614)" fill="#333" font-size="12" font-family="SegoeUI, Segoe UI"><tspan x="-3.234" y="0">4</tspan></text>
          <text id="_6" data-name="6" transform="translate(853 1614)" fill="#333" font-size="12" font-family="SegoeUI, Segoe UI"><tspan x="-3.234" y="0">6</tspan></text>
          <text id="_8" data-name="8" transform="translate(897 1614)" fill="#333" font-size="12" font-family="SegoeUI, Segoe UI"><tspan x="-3.234" y="0">8</tspan></text>
          <text id="_10" data-name="10" transform="translate(942 1614)" fill="#333" font-size="12" font-family="SegoeUI, Segoe UI"><tspan x="-6.469" y="0">10</tspan></text>
          <text id="_12" data-name="12" transform="translate(986 1614)" fill="#333" font-size="12" font-family="SegoeUI, Segoe UI"><tspan x="-6.469" y="0">12</tspan></text>
          <text id="_14" data-name="14" transform="translate(1029 1614)" fill="#333" font-size="12" font-family="SegoeUI, Segoe UI"><tspan x="-6.469" y="0">14</tspan></text>
          <text id="_16" data-name="16" transform="translate(1074 1614)" fill="#333" font-size="12" font-family="SegoeUI, Segoe UI"><tspan x="-6.469" y="0">16</tspan></text>
          <text id="_18" data-name="18" transform="translate(1117 1614)" fill="#333" font-size="12" font-family="SegoeUI, Segoe UI"><tspan x="-6.469" y="0">18</tspan></text>
          <text id="_20" data-name="20" transform="translate(1162 1614)" fill="#333" font-size="12" font-family="SegoeUI, Segoe UI"><tspan x="-6.469" y="0">20</tspan></text>
        </g>
      </g>
      <g id="Group_32700" data-name="Group 32700">
        <path id="Path_28439" data-name="Path 28439" d="M0,0H1.111V309.453H0Z" transform="translate(719 1160.547)"/>
        <g id="Group_32690" data-name="Group 32690" transform="translate(57 -120)">
          <rect id="Rectangle_15150" data-name="Rectangle 15150" width="1" height="9" transform="translate(662 1590)"/>
          <rect id="Rectangle_15151" data-name="Rectangle 15151" width="1" height="9" transform="translate(684 1590)"/>
          <rect id="Rectangle_15152" data-name="Rectangle 15152" width="1" height="9" transform="translate(706 1590)"/>
          <rect id="Rectangle_15153" data-name="Rectangle 15153" width="1" height="9" transform="translate(728 1590)"/>
          <rect id="Rectangle_15154" data-name="Rectangle 15154" width="1" height="9" transform="translate(750 1590)"/>
          <rect id="Rectangle_15155" data-name="Rectangle 15155" width="1" height="9" transform="translate(772 1590)"/>
          <rect id="Rectangle_15156" data-name="Rectangle 15156" width="1" height="9" transform="translate(794 1590)"/>
          <rect id="Rectangle_15157" data-name="Rectangle 15157" width="1" height="9" transform="translate(816 1590)"/>
          <rect id="Rectangle_15158" data-name="Rectangle 15158" width="1" height="9" transform="translate(838 1590)"/>
          <rect id="Rectangle_15159" data-name="Rectangle 15159" width="1" height="9" transform="translate(860 1590)"/>
          <rect id="Rectangle_15160" data-name="Rectangle 15160" width="1" height="9" transform="translate(882 1590)"/>
          <rect id="Rectangle_15161" data-name="Rectangle 15161" width="1" height="9" transform="translate(904 1590)"/>
          <rect id="Rectangle_15162" data-name="Rectangle 15162" width="1" height="9" transform="translate(926 1590)"/>
          <rect id="Rectangle_15163" data-name="Rectangle 15163" width="1" height="9" transform="translate(948 1590)"/>
          <rect id="Rectangle_15164" data-name="Rectangle 15164" width="1" height="9" transform="translate(970 1590)"/>
          <rect id="Rectangle_15165" data-name="Rectangle 15165" width="1" height="9" transform="translate(992 1590)"/>
          <rect id="Rectangle_15166" data-name="Rectangle 15166" width="1" height="9" transform="translate(1014 1590)"/>
          <rect id="Rectangle_15167" data-name="Rectangle 15167" width="1" height="9" transform="translate(1036 1590)"/>
          <rect id="Rectangle_15168" data-name="Rectangle 15168" width="1" height="9" transform="translate(1058 1590)"/>
          <rect id="Rectangle_15169" data-name="Rectangle 15169" width="1" height="9" transform="translate(1080 1590)"/>
          <rect id="Rectangle_15170" data-name="Rectangle 15170" width="1" height="9" transform="translate(1102 1590)"/>
        </g>
      </g>
    </g>
    <g id="Group_32689" data-name="Group 32689" transform="translate(598.5 -484)">
      <path id="Path_30743" data-name="Path 30743" d="M7732-12468.6v-300" transform="translate(-7544.5 14417.602)" fill="none" stroke="#ccc" stroke-width="0.8" stroke-dasharray="4 4"/>
      <path id="Path_30744" data-name="Path 30744" d="M7732-12468.6v-300" transform="translate(-7522.5 14417.602)" fill="none" stroke="#ccc" stroke-width="0.8" stroke-dasharray="4 4"/>
      <path id="Path_30736" data-name="Path 30736" d="M7732-12468.6v-300" transform="translate(-7500.5 14417.602)" fill="none" stroke="#ccc" stroke-width="0.8" stroke-dasharray="4 4"/>
      <path id="Path_30736-2" data-name="Path 30736" d="M7732-12468.6v-300" transform="translate(-7478.5 14417.602)" fill="none" stroke="#ccc" stroke-width="0.8" stroke-dasharray="4 4"/>
      <path id="Path_30736-3" data-name="Path 30736" d="M7732-12468.6v-300" transform="translate(-7456.5 14417.602)" fill="none" stroke="#ccc" stroke-width="0.8" stroke-dasharray="4 4"/>
      <path id="Path_30736-4" data-name="Path 30736" d="M7732-12468.6v-300" transform="translate(-7434.5 14417.602)" fill="none" stroke="#ccc" stroke-width="0.8" stroke-dasharray="4 4"/>
      <path id="Path_30736-5" data-name="Path 30736" d="M7732-12468.6v-300" transform="translate(-7412.5 14417.602)" fill="none" stroke="#ccc" stroke-width="0.8" stroke-dasharray="4 4"/>
      <path id="Path_30736-6" data-name="Path 30736" d="M7732-12468.6v-300" transform="translate(-7390.5 14417.602)" fill="none" stroke="#ccc" stroke-width="0.8" stroke-dasharray="4 4"/>
      <path id="Path_30736-7" data-name="Path 30736" d="M7732-12468.6v-300" transform="translate(-7368.5 14417.602)" fill="none" stroke="#ccc" stroke-width="0.8" stroke-dasharray="4 4"/>
      <path id="Path_30736-8" data-name="Path 30736" d="M7732-12468.6v-300" transform="translate(-7346.5 14417.602)" fill="none" stroke="#ccc" stroke-width="0.8" stroke-dasharray="4 4"/>
      <path id="Path_30736-9" data-name="Path 30736" d="M7732-12468.6v-300" transform="translate(-7324.5 14417.602)" fill="none" stroke="#ccc" stroke-width="0.8" stroke-dasharray="4 4"/>
      <path id="Path_30736-10" data-name="Path 30736" d="M7732-12468.6v-300" transform="translate(-7302.5 14417.602)" fill="none" stroke="#ccc" stroke-width="0.8" stroke-dasharray="4 4"/>
      <path id="Path_30736-11" data-name="Path 30736" d="M7732-12468.6v-300" transform="translate(-7280.5 14417.602)" fill="none" stroke="#ccc" stroke-width="0.8" stroke-dasharray="4 4"/>
      <path id="Path_30736-12" data-name="Path 30736" d="M7732-12468.6v-300" transform="translate(-7258.5 14417.602)" fill="none" stroke="#ccc" stroke-width="0.8" stroke-dasharray="4 4"/>
      <path id="Path_30736-13" data-name="Path 30736" d="M7732-12468.6v-300" transform="translate(-7236.5 14417.602)" fill="none" stroke="#ccc" stroke-width="0.8" stroke-dasharray="4 4"/>
      <path id="Path_30736-14" data-name="Path 30736" d="M7732-12468.6v-300" transform="translate(-7214.5 14417.602)" fill="none" stroke="#ccc" stroke-width="0.8" stroke-dasharray="4 4"/>
      <path id="Path_30736-15" data-name="Path 30736" d="M7732-12468.6v-300" transform="translate(-7171.5 14417.602)" fill="none" stroke="#ccc" stroke-width="0.8" stroke-dasharray="4 4"/>
      <path id="Path_30960" data-name="Path 30960" d="M7732-12468.6v-300" transform="translate(-7192.5 14417.602)" fill="none" stroke="#ccc" stroke-width="0.8" stroke-dasharray="4 4"/>
      <path id="Path_30961" data-name="Path 30961" d="M7732-12468.6v-300" transform="translate(-7566.5 14417.602)" fill="none" stroke="#ccc" stroke-width="0.8" stroke-dasharray="4 4"/>
      <path id="Path_31185" data-name="Path 31185" d="M7732-12468.6v-300" transform="translate(-7588.5 14417.602)" fill="none" stroke="#ccc" stroke-width="0.8" stroke-dasharray="4 4"/>
    </g>
  </g>
</svg>
