<svg xmlns="http://www.w3.org/2000/svg" width="355.981" height="338.607" viewBox="0 0 355.981 338.607">
  <g id="Group_32531" data-name="Group 32531" transform="translate(-8600.756 14620.453)">
    <rect id="Rectangle_15069" data-name="Rectangle 15069" width="350" height="309" transform="translate(8605 -14620)" fill="#fff"/>
    <g id="Group_32530" data-name="Group 32530" transform="translate(8525 -15649.538)">
      <path id="Path_28439" data-name="Path 28439" d="M0,0H1.111V309.453H0Z" transform="translate(78.889 1029.085)"/>
    </g>
    <path id="Path_30758" data-name="Path 30758" d="M0,0H351V1H0Z" transform="translate(8604 -14312)"/>
    <rect id="Rectangle_15081" data-name="Rectangle 15081" width="1" height="9" transform="translate(8604 -14312)"/>
    <rect id="Rectangle_15078" data-name="Rectangle 15078" width="1" height="9" transform="translate(8654 -14312)"/>
    <path id="Path_30766" data-name="Path 30766" d="M-3.752.154A2.5,2.5,0,0,1-5.579-.5a2.365,2.365,0,0,1-.665-1.771q0-.14.028-.476l.532-4.312a3.238,3.238,0,0,1,1.015-2.1A3.072,3.072,0,0,1-2.52-9.94a2.524,2.524,0,0,1,1.834.651A2.351,2.351,0,0,1-.014-7.518q0,.154-.028.462L-.574-2.744A3.325,3.325,0,0,1-1.6-.637,3.056,3.056,0,0,1-3.752.154Zm.168-1.414a1.314,1.314,0,0,0,.959-.378A1.611,1.611,0,0,0-2.17-2.646l.56-4.48A1.541,1.541,0,0,0-1.6-7.364a1.209,1.209,0,0,0-.287-.847,1.034,1.034,0,0,0-.805-.315,1.3,1.3,0,0,0-.945.378A1.688,1.688,0,0,0-4.1-7.126l-.546,4.48a1.541,1.541,0,0,0-.014.238,1.183,1.183,0,0,0,.287.84A1.028,1.028,0,0,0-3.584-1.26Z" transform="translate(8607 -14282)" fill="#333"/>
    <rect id="Rectangle_15073" data-name="Rectangle 15073" width="1" height="9" transform="translate(8704 -14312)"/>
    <rect id="Rectangle_15074" data-name="Rectangle 15074" width="1" height="9" transform="translate(8754 -14312)"/>
    <rect id="Rectangle_15075" data-name="Rectangle 15075" width="1" height="9" transform="translate(8804 -14312)"/>
    <rect id="Rectangle_15072" data-name="Rectangle 15072" width="1" height="9" transform="translate(8854 -14312)"/>
    <rect id="Rectangle_15070" data-name="Rectangle 15070" width="1" height="9" transform="translate(8904 -14312)"/>
    <rect id="Rectangle_15071" data-name="Rectangle 15071" width="1" height="9" transform="translate(8954 -14312)"/>
    <path id="Path_30765" data-name="Path 30765" d="M-4.172-1.484a.058.058,0,0,0-.021.056q.007.028.049.028H-.728a.14.14,0,0,1,.112.049.133.133,0,0,1,.028.119L-.728-.168a.152.152,0,0,1-.056.119A.186.186,0,0,1-.91,0H-6.188A.14.14,0,0,1-6.3-.049a.133.133,0,0,1-.028-.119L-6.2-1.246a.4.4,0,0,1,.1-.21Q-4.27-3.43-2.94-5.012A4.526,4.526,0,0,0-1.624-7.448a1.1,1.1,0,0,0-.266-.777.962.962,0,0,0-.742-.287,1.211,1.211,0,0,0-.861.336,1.37,1.37,0,0,0-.413.9l-.056.462a.227.227,0,0,1-.063.119.162.162,0,0,1-.119.049H-5.418A.14.14,0,0,1-5.53-6.7a.133.133,0,0,1-.028-.119l.084-.6A2.824,2.824,0,0,1-4.445-9.226a3.093,3.093,0,0,1,2.009-.686A2.447,2.447,0,0,1-.672-9.3,2.144,2.144,0,0,1-.028-7.672a3.618,3.618,0,0,1-.35,1.519A7.46,7.46,0,0,1-1.47-4.508q-.63.784-2.114,2.38Z" transform="translate(8657 -14282)" fill="#333"/>
    <path id="Path_30764" data-name="Path 30764" d="M-.406-4.018a.14.14,0,0,1,.112.049.133.133,0,0,1,.028.119l-.14,1.12a.227.227,0,0,1-.063.119.162.162,0,0,1-.119.049h-.49q-.056,0-.084.07l-.28,2.324A.227.227,0,0,1-1.5-.049.162.162,0,0,1-1.624,0H-2.87a.14.14,0,0,1-.112-.049A.133.133,0,0,1-3.01-.168l.28-2.324q0-.07-.056-.07H-6.51a.14.14,0,0,1-.112-.049A.133.133,0,0,1-6.65-2.73l.112-.91a.987.987,0,0,1,.056-.21l2.94-5.824a.183.183,0,0,1,.2-.126h1.33q.2,0,.112.2L-4.662-4.1a.06.06,0,0,0,0,.056.045.045,0,0,0,.042.028h2q.084,0,.084-.07l.224-1.806a.227.227,0,0,1,.063-.119.162.162,0,0,1,.119-.049H-.882a.14.14,0,0,1,.112.049.133.133,0,0,1,.028.119L-.966-4.088a.062.062,0,0,0,.07.07Z" transform="translate(8707 -14282)" fill="#333"/>
    <path id="Path_30763" data-name="Path 30763" d="M-.434-4.522a2.926,2.926,0,0,1,.126.9,3.965,3.965,0,0,1-.042.56A4.688,4.688,0,0,1-.686-1.792a2.739,2.739,0,0,1-1.043,1.4A3,3,0,0,1-3.458.1,2.449,2.449,0,0,1-4.984-.35a1.948,1.948,0,0,1-.728-1.288.042.042,0,0,1-.007-.042.042.042,0,0,0-.007-.042,2.274,2.274,0,0,1-.1-.714,4.264,4.264,0,0,1,.042-.574l.518-4.41A2.677,2.677,0,0,1-4.3-9.233a3.071,3.071,0,0,1,2.016-.679A2.4,2.4,0,0,1-.6-9.338a1.965,1.965,0,0,1,.63,1.526q0,.112-.028.364l-.042.322a.227.227,0,0,1-.063.119.162.162,0,0,1-.119.049H-1.47a.14.14,0,0,1-.112-.049.133.133,0,0,1-.028-.119l.014-.182a1.057,1.057,0,0,0,.014-.2,1.037,1.037,0,0,0-.238-.707.8.8,0,0,0-.63-.273,1.159,1.159,0,0,0-.833.329,1.359,1.359,0,0,0-.4.875l-.2,1.5a.056.056,0,0,0,.028.056.046.046,0,0,0,.056-.014,1.969,1.969,0,0,1,1.316-.49A2.031,2.031,0,0,1-1.1-5.775,2.068,2.068,0,0,1-.434-4.522ZM-2.17-2.17a3.958,3.958,0,0,0,.238-.938q.028-.28.028-.406a2.961,2.961,0,0,0-.07-.63.826.826,0,0,0-.882-.742,1.139,1.139,0,0,0-1.078.756A3.637,3.637,0,0,0-4.2-3.08a3.589,3.589,0,0,0-.042.56q0,1.218.952,1.218a1.079,1.079,0,0,0,.672-.224A1.381,1.381,0,0,0-2.17-2.17Z" transform="translate(8757 -14282)" fill="#333"/>
    <path id="Path_30762" data-name="Path 30762" d="M-.616-4.326A3.011,3.011,0,0,1-.462-3.318q0,.14-.028.5A4,4,0,0,1-.924-1.442,3.021,3.021,0,0,1-2.016-.3,2.98,2.98,0,0,1-3.584.112,2.518,2.518,0,0,1-5.026-.294a2.116,2.116,0,0,1-.84-1.148,3.465,3.465,0,0,1-.112-.9q0-.154.028-.49A4.108,4.108,0,0,1-5.488-4.3a2.152,2.152,0,0,1,.8-.812q.07-.042.028-.1a1.611,1.611,0,0,1-.532-.728,2.284,2.284,0,0,1-.168-.882q0-.14.028-.448A3.045,3.045,0,0,1-4.718-8.82,2.642,2.642,0,0,1-3.7-9.667a3.1,3.1,0,0,1,1.365-.3,2.637,2.637,0,0,1,1.281.294,1.95,1.95,0,0,1,.819.84,2.624,2.624,0,0,1,.266,1.19A2.974,2.974,0,0,1-.49-5.922a2.432,2.432,0,0,1-.714.7q-.056.056-.014.1A1.644,1.644,0,0,1-.616-4.326ZM-3.542-7.938a1.749,1.749,0,0,0-.252.77,2.262,2.262,0,0,0-.014.294,1.3,1.3,0,0,0,.1.546.813.813,0,0,0,.322.427.948.948,0,0,0,.532.147,1.157,1.157,0,0,0,1.022-.6,1.949,1.949,0,0,0,.28-1.078,1.4,1.4,0,0,0-.084-.518A.835.835,0,0,0-1.953-8.4a.938.938,0,0,0-.567-.168,1.114,1.114,0,0,0-.588.161A1.209,1.209,0,0,0-3.542-7.938Zm1.2,5.922a2.705,2.705,0,0,0,.28-.924q.028-.308.028-.42a2.09,2.09,0,0,0-.07-.56A.865.865,0,0,0-3-4.592a1.1,1.1,0,0,0-.623.182,1.225,1.225,0,0,0-.427.5,2.6,2.6,0,0,0-.28.966q-.028.28-.028.378a2.034,2.034,0,0,0,.07.546.979.979,0,0,0,.308.539.859.859,0,0,0,.574.189A1.166,1.166,0,0,0-2.338-2.016Z" transform="translate(8807 -14282)" fill="#333"/>
    <path id="Path_30761" data-name="Path 30761" d="M-8.428-9.758a.416.416,0,0,1,.21-.042h1.3a.14.14,0,0,1,.112.049.133.133,0,0,1,.028.119L-7.938-.168a.152.152,0,0,1-.056.119A.186.186,0,0,1-8.12,0H-9.366a.14.14,0,0,1-.112-.049.133.133,0,0,1-.028-.119l.966-7.938a.046.046,0,0,0-.014-.056.046.046,0,0,0-.056-.014l-1.274.35-.056.014a.109.109,0,0,1-.1-.042.145.145,0,0,1-.014-.112l.07-.938a.272.272,0,0,1,.126-.2ZM-3.752.154A2.5,2.5,0,0,1-5.579-.5a2.365,2.365,0,0,1-.665-1.771q0-.14.028-.476l.532-4.312a3.238,3.238,0,0,1,1.015-2.1A3.072,3.072,0,0,1-2.52-9.94a2.524,2.524,0,0,1,1.834.651A2.351,2.351,0,0,1-.014-7.518q0,.154-.028.462L-.574-2.744A3.325,3.325,0,0,1-1.6-.637,3.056,3.056,0,0,1-3.752.154Zm.168-1.414a1.314,1.314,0,0,0,.959-.378A1.611,1.611,0,0,0-2.17-2.646l.56-4.48A1.541,1.541,0,0,0-1.6-7.364a1.209,1.209,0,0,0-.287-.847,1.034,1.034,0,0,0-.805-.315,1.3,1.3,0,0,0-.945.378A1.688,1.688,0,0,0-4.1-7.126l-.546,4.48a1.541,1.541,0,0,0-.014.238,1.183,1.183,0,0,0,.287.84A1.028,1.028,0,0,0-3.584-1.26Z" transform="translate(8857 -14282)" fill="#333"/>
    <path id="Path_30760" data-name="Path 30760" d="M-8.162-9.758a.416.416,0,0,1,.21-.042h1.3a.14.14,0,0,1,.112.049.133.133,0,0,1,.028.119L-7.672-.168a.152.152,0,0,1-.056.119A.186.186,0,0,1-7.854,0H-9.1a.14.14,0,0,1-.112-.049A.133.133,0,0,1-9.24-.168l.966-7.938a.046.046,0,0,0-.014-.056.046.046,0,0,0-.056-.014l-1.274.35-.056.014a.109.109,0,0,1-.1-.042.145.145,0,0,1-.014-.112l.07-.938a.272.272,0,0,1,.126-.2Zm3.99,8.274a.058.058,0,0,0-.021.056q.007.028.049.028H-.728a.14.14,0,0,1,.112.049.133.133,0,0,1,.028.119L-.728-.168a.152.152,0,0,1-.056.119A.186.186,0,0,1-.91,0H-6.188A.14.14,0,0,1-6.3-.049a.133.133,0,0,1-.028-.119L-6.2-1.246a.4.4,0,0,1,.1-.21Q-4.27-3.43-2.94-5.012A4.526,4.526,0,0,0-1.624-7.448a1.1,1.1,0,0,0-.266-.777.962.962,0,0,0-.742-.287,1.211,1.211,0,0,0-.861.336,1.37,1.37,0,0,0-.413.9l-.056.462a.227.227,0,0,1-.063.119.162.162,0,0,1-.119.049H-5.418A.14.14,0,0,1-5.53-6.7a.133.133,0,0,1-.028-.119l.084-.6A2.824,2.824,0,0,1-4.445-9.226a3.093,3.093,0,0,1,2.009-.686A2.447,2.447,0,0,1-.672-9.3,2.144,2.144,0,0,1-.028-7.672a3.618,3.618,0,0,1-.35,1.519A7.46,7.46,0,0,1-1.47-4.508q-.63.784-2.114,2.38Z" transform="translate(8907 -14282)" fill="#333"/>
    <path id="Path_30759" data-name="Path 30759" d="M-8.61-9.758A.416.416,0,0,1-8.4-9.8h1.3a.14.14,0,0,1,.112.049.133.133,0,0,1,.028.119L-8.12-.168a.152.152,0,0,1-.056.119A.186.186,0,0,1-8.3,0H-9.548A.14.14,0,0,1-9.66-.049a.133.133,0,0,1-.028-.119l.966-7.938a.046.046,0,0,0-.014-.056.046.046,0,0,0-.056-.014l-1.274.35-.056.014a.109.109,0,0,1-.1-.042.145.145,0,0,1-.014-.112l.07-.938a.272.272,0,0,1,.126-.2Zm8.2,5.74a.14.14,0,0,1,.112.049.133.133,0,0,1,.028.119l-.14,1.12a.227.227,0,0,1-.063.119.162.162,0,0,1-.119.049h-.49q-.056,0-.084.07l-.28,2.324A.227.227,0,0,1-1.5-.049.162.162,0,0,1-1.624,0H-2.87a.14.14,0,0,1-.112-.049A.133.133,0,0,1-3.01-.168l.28-2.324q0-.07-.056-.07H-6.51a.14.14,0,0,1-.112-.049A.133.133,0,0,1-6.65-2.73l.112-.91a.987.987,0,0,1,.056-.21l2.94-5.824a.183.183,0,0,1,.2-.126h1.33q.2,0,.112.2L-4.662-4.1a.06.06,0,0,0,0,.056.045.045,0,0,0,.042.028h2q.084,0,.084-.07l.224-1.806a.227.227,0,0,1,.063-.119.162.162,0,0,1,.119-.049H-.882a.14.14,0,0,1,.112.049.133.133,0,0,1,.028.119L-.966-4.088a.062.062,0,0,0,.07.07Z" transform="translate(8957 -14282)" fill="#333"/>
    <path id="Path_30736" data-name="Path 30736" d="M7732-12460.5v-308.1" transform="translate(922.5 -1851.398)" fill="none" stroke="#ccc" stroke-width="0.8" stroke-dasharray="4"/>
    <path id="Path_30743" data-name="Path 30743" d="M7732-12460.5v-308.1" transform="translate(972.5 -1851.398)" fill="none" stroke="#ccc" stroke-width="0.8" stroke-dasharray="4"/>
    <path id="Path_30744" data-name="Path 30744" d="M7732-12460.5v-308.1" transform="translate(1022.5 -1851.398)" fill="none" stroke="#ccc" stroke-width="0.8" stroke-dasharray="4"/>
    <path id="Path_30745" data-name="Path 30745" d="M7732-12460.5v-308.1" transform="translate(1072.5 -1851.398)" fill="none" stroke="#ccc" stroke-width="0.8" stroke-dasharray="4"/>
    <path id="Path_30746" data-name="Path 30746" d="M7732-12460.5v-308.1" transform="translate(1122.5 -1851.398)" fill="none" stroke="#ccc" stroke-width="0.8" stroke-dasharray="4"/>
    <path id="Path_30747" data-name="Path 30747" d="M7732-12460.5v-308.1" transform="translate(1172.5 -1851.398)" fill="none" stroke="#ccc" stroke-width="0.8" stroke-dasharray="4"/>
  </g>
</svg>
