<svg xmlns="http://www.w3.org/2000/svg" width="21" height="21" viewBox="0 0 21 21">
  <path id="Path_28288" data-name="Path 28288" d="M98,17.5a10.512,10.512,0,1,0,7.421,3.079A10.5,10.5,0,0,0,98,17.5Zm.375,3.027,3.65-1.459a9.858,9.858,0,0,1,1.2.646l.009.006h0a9.886,9.886,0,0,1,1.08.792l.029.026q.23.2.447.405l.056.053q.228.223.441.459l.035.041c.125.14.245.285.362.432l.083.1c.126.164.249.33.364.5l-.728,3.093-3.58,1.193-3.449-2.759Zm-8.143,1.508.083-.105q.173-.219.357-.428l.039-.044q.212-.237.44-.459c.018-.017.035-.035.053-.051q.216-.208.443-.4l.035-.029h0a9.9,9.9,0,0,1,1.07-.788l.014-.009a9.861,9.861,0,0,1,1.192-.646l3.667,1.452v3.535l-3.449,2.759-3.58-1.191-.728-3.093c.117-.172.238-.338.363-.5Zm-.422,11.335q-.154-.235-.3-.48l-.023-.039q-.14-.243-.265-.494l0-.005h0a9.745,9.745,0,0,1-.461-1.085v0c-.062-.175-.119-.354-.172-.534l-.019-.067q-.072-.254-.131-.514c0-.017-.008-.033-.011-.05h0a9.675,9.675,0,0,1-.185-1.185L90.38,26.35l3.555,1.185,1.032,4.127-1.7,2.256Zm10.521,4.147c-.175.043-.355.081-.534.114l-.076.014c-.153.027-.308.051-.463.07l-.124.016c-.144.017-.289.029-.435.04l-.137.01c-.186.012-.374.018-.563.018q-.26,0-.516-.014c-.021,0-.041,0-.061,0q-.228-.013-.455-.035l-.018,0a9.984,9.984,0,0,1-.987-.158l-2.07-3.241,1.669-2.225h4.877l1.7,2.24Zm7.24-7.418c0,.017-.008.033-.011.05q-.059.259-.131.514l-.019.067c-.052.18-.109.359-.172.534v0h0a9.73,9.73,0,0,1-.461,1.085l0,.005q-.126.251-.265.494l-.023.039q-.14.245-.295.479l-3.453.545-1.707-2.254,1.031-4.126,3.555-1.185,2.137,2.564h0a9.743,9.743,0,0,1-.185,1.186Z" transform="translate(-87.497 -17.5)" fill="#333"/>
</svg>
