<svg xmlns="http://www.w3.org/2000/svg" width="32" height="32" viewBox="0 0 32 32">
  <g id="Group_29796" data-name="Group 29796" transform="translate(4925 -1616) rotate(180)">
    <circle id="Ellipse_157" data-name="Ellipse 157" cx="16" cy="16" r="16" transform="translate(4893 -1648)" fill="#fff"/>
    <path id="Path_25970" data-name="Path 25970" d="M11.326,5.9H2.646L5.673,8.927a.775.775,0,1,1-1.1,1.1L.227,5.673a.769.769,0,0,1-.052-.057L.156,5.591C.148,5.579.139,5.567.13,5.555s-.013-.022-.02-.033L.091,5.49C.085,5.479.08,5.467.075,5.455S.064,5.433.059,5.421.05,5.4.046,5.387.037,5.363.033,5.35.027,5.326.024,5.314.017,5.289.015,5.276s0-.028-.006-.042S0,5.213,0,5.2a.783.783,0,0,1,0-.153c0-.011,0-.022,0-.033s0-.028.006-.042.006-.025.009-.038S.03,4.912.033,4.9s.009-.025.013-.037.008-.023.013-.035.01-.023.016-.034.011-.023.017-.034S.1,4.738.111,4.727s.013-.022.02-.033l.026-.035.019-.025a.769.769,0,0,1,.052-.057L4.577.227a.775.775,0,0,1,1.1,1.1L2.646,4.35h8.679a.775.775,0,0,1,0,1.55Z" transform="translate(4914.513 -1627.162) rotate(180)" fill="#aaa"/>
  </g>
</svg>
