<svg id="Group_32098" data-name="Group 32098" xmlns="http://www.w3.org/2000/svg" width="24.474" height="19.579" viewBox="0 0 24.474 19.579">
  <path id="noun-change-2623554" d="M138.693,102.493l-10.044,10.044a1.285,1.285,0,1,1-1.817-1.817l10.044-10.044h-4.3a1.224,1.224,0,0,1,0-2.447h7.342a1.224,1.224,0,0,1,1.224,1.224v7.342a1.224,1.224,0,0,1-2.447,0Zm-19.58,1.261,10.044-10.044a1.285,1.285,0,1,1,1.817,1.817L120.93,105.571h4.3a1.224,1.224,0,1,1,0,2.447H117.89a1.224,1.224,0,0,1-1.224-1.224V99.453a1.224,1.224,0,0,1,2.447,0Z" transform="translate(-116.666 -93.334)" fill="#6b64c1"/>
</svg>
