<svg xmlns="http://www.w3.org/2000/svg" width="26" height="26" viewBox="0 0 26 26">
  <g id="Group_28602" data-name="Group 28602" transform="translate(12866 2726)">
    <g id="Group_28600" data-name="Group 28600" transform="translate(-13932 -4145)">
      <circle id="Ellipse_157" data-name="Ellipse 157" cx="13" cy="13" r="13" transform="translate(1066 1419)" fill="#fff"/>
      <path id="Path_25970" data-name="Path 25970" d="M9.2,4.794H2.15L4.609,7.253a.63.63,0,1,1-.89.891L.185,4.61a.625.625,0,0,1-.042-.047L.127,4.542.106,4.513C.1,4.5.1,4.5.09,4.487L.074,4.461.061,4.433c0-.009-.009-.018-.013-.028s-.007-.019-.01-.028-.007-.02-.011-.03S.022,4.328.02,4.318.014,4.3.012,4.287s0-.023-.005-.034,0-.018,0-.027A.636.636,0,0,1,0,4.1c0-.009,0-.018,0-.027s0-.023.005-.034,0-.021.008-.031,0-.019.007-.029.007-.02.011-.03.006-.019.01-.028L.061,3.9c0-.009.009-.019.014-.028L.09,3.841C.1,3.832.1,3.823.106,3.814l.021-.029.015-.021a.625.625,0,0,1,.042-.047L3.719.184a.63.63,0,0,1,.891.891L2.15,3.534H9.2a.63.63,0,1,1,0,1.259Z" transform="translate(1083.479 1435.931) rotate(180)" fill="#6b64c1"/>
    </g>
  </g>
</svg>
