<svg xmlns="http://www.w3.org/2000/svg" width="19.507" height="20" viewBox="0 0 19.507 20">
  <path id="Path_27161" data-name="Path 27161" d="M38.282,46.24a10.45,10.45,0,0,1-1.337-1.926c.949-3.282,1.078-5.558.3-6.7a2.016,2.016,0,0,0-1.769-.919,1.85,1.85,0,0,0-1.855,1.182c-.647,1.532.345,4.333,1.51,6.608a35.491,35.491,0,0,1-1.251,3.5h0a17.713,17.713,0,0,1-.949,2.057c-2.588,1.007-5.435,2.538-5.78,4.376a1.826,1.826,0,0,0,.69,1.838,1.686,1.686,0,0,0,1.165.438,2.137,2.137,0,0,0,.518-.088c1.6-.394,3.278-2.8,4.572-5.164.733-.263,1.6-.569,2.5-.831,1.078-.306,2.071-.569,2.933-.744a7.221,7.221,0,0,0,4.227,2.013A2.8,2.8,0,0,0,46,50.923a1.713,1.713,0,0,0,.431-2.1c-.69-1.182-3.02-1.444-6.427-.788C39.489,47.51,38.886,46.9,38.282,46.24Zm-9.145,8.709c-.129.044-.173,0-.3-.219.086-.438.906-1.269,2.674-2.144C30.6,53.9,29.741,54.818,29.137,54.949Zm6-16.368c.043-.088.043-.131.3-.131s.345.088.388.175c.3.438.3,1.576-.043,3.37C35.219,40.507,34.874,39.151,35.133,38.582Zm1.035,10.372c-.3.088-.647.175-.992.306.086-.219.173-.438.259-.613h0c.3-.788.6-1.532.82-2.232a11.648,11.648,0,0,0,.776,1.007c.345.35.69.7.992,1.05C37.462,48.6,36.815,48.779,36.168,48.954Zm8.714.744c-.216.394-.561.438-1.035.438a4.191,4.191,0,0,1-1.941-.7C44.019,49.216,45.1,49.3,44.882,49.7Z" transform="translate(-27.116 -36.7)" fill="#dc1f10"/>
</svg>
