<svg xmlns="http://www.w3.org/2000/svg" width="24.267" height="26" viewBox="0 0 24.267 26">
  <path id="Path_28144" data-name="Path 28144" d="M23.088,13.9l.145.4a16.441,16.441,0,0,1,5.9-1.982,2.16,2.16,0,0,1-.386-.385A17.233,17.233,0,0,0,23.088,13.9Zm17.431-.115-.135.406a14.262,14.262,0,0,0-5.482-1.87,2.14,2.14,0,0,0,.359-.392,14.959,14.959,0,0,1,5.258,1.856Zm-17.654-.1,2.382-1.241a23.969,23.969,0,0,1,3.308-.838,1.231,1.231,0,0,1-.1-.438c-.44.089-.878.185-1.31.289l1.389-.724a1.337,1.337,0,0,1,.6-.674c-.471.676-.083,1.378.7,1.8,1.871,1.011,5.131.307,5.131-1.194a1.065,1.065,0,0,0-.23-.645,1.548,1.548,0,0,1,.793.806l.993.536q-.485-.111-.978-.208a1.327,1.327,0,0,1-.095.44,22.168,22.168,0,0,1,2.721.657l2.656,1.433,1.66,1.425,1.562,6.8c.535,1.691.16,1.726-1.635,2.318-1.986.656-2.21.478-2.61-.892l-.426-1.016L38.9,26.048,39.316,35a.629.629,0,0,1-.6.74l-13.648-.047c-.723-.02-.763-.161-.695-.9l.841-8.74-.244-4.137-.429,1.777c-.109,1.631-1.155,1.126-2.67.889-1.443-.408-2.181-.327-1.759-1.849l1.633-7.619,1.116-1.425ZM29.489,9.9a9.547,9.547,0,0,1,2.341-.15,9.715,9.715,0,0,1,2.548.133,1.045,1.045,0,0,1,.417.777c0,1.327-3.1,2.015-4.887,1.047-.847-.458-1.115-1.188-.418-1.807Z" transform="translate(-19.999 -9.735)" fill="#ccc" fill-rule="evenodd"/>
</svg>
