<svg xmlns="http://www.w3.org/2000/svg" width="29.833" height="40" viewBox="0 0 29.833 40">
  <path id="noun-report-1547865" d="M150.65,2.962h1.575a3.995,3.995,0,0,1,7.716,0h10.028A1.029,1.029,0,0,1,171,3.991V38.97A1.029,1.029,0,0,1,169.968,40H142.193a1.029,1.029,0,0,1-1.029-1.029V3.991a1.029,1.029,0,0,1,1.029-1.029h8.457ZM146.626,33.44a1.023,1.023,0,0,1,1.318-1.566l.444.373.993-1.171a1.026,1.026,0,1,1,1.566,1.326L149.3,34.353h0a1.024,1.024,0,0,1-1.439.122Zm0-6.172a1.025,1.025,0,0,1,1.318-1.569l.444.376.993-1.173a1.026,1.026,0,1,1,1.566,1.326L149.3,28.179h0a1.022,1.022,0,0,1-1.439.122Zm0-12.347a1.023,1.023,0,0,1,1.318-1.566l.444.373.993-1.171a1.026,1.026,0,1,1,1.566,1.326L149.3,15.835l0,0a1.022,1.022,0,0,1-1.439.124Zm0,6.172a1.023,1.023,0,0,1,1.318-1.566l.444.373.993-1.171a1.026,1.026,0,1,1,1.566,1.326L149.3,22.007h0a1.024,1.024,0,0,1-1.439.122Zm7.388,12.649a1.028,1.028,0,1,1,0-2.055h10.862a1.028,1.028,0,1,1,0,2.055Zm0-18.519a1.029,1.029,0,0,1,0-2.058h10.862a1.029,1.029,0,0,1,0,2.058Zm0,6.172a1.028,1.028,0,1,1,0-2.055h10.862a1.028,1.028,0,1,1,0,2.055Zm0,6.175a1.029,1.029,0,0,1,0-2.058h10.862a1.029,1.029,0,0,1,0,2.058Zm8.527-22.55V7.941a1.029,1.029,0,0,1-1.029,1.029H150.65a1.029,1.029,0,0,1-1.029-1.029V5.021h-6.4V37.942h25.72V5.021Zm-9.424,0h-1.439V6.912h8.807V5.021h-1.442a1.029,1.029,0,0,1-1.029-1.029,1.926,1.926,0,0,0-.566-1.368v0a1.935,1.935,0,0,0-3.3,1.371,1.029,1.029,0,0,1-1.029,1.029Z" transform="translate(-141.164 0.001)" fill="#6b64c1"/>
</svg>
