<svg xmlns="http://www.w3.org/2000/svg" width="12.649" height="12.649" viewBox="0 0 12.649 12.649">
  <path id="history" d="M6.229,12.649A6.393,6.393,0,0,1,0,7.869L1.046,7.7a5.361,5.361,0,0,0,5.183,3.9A5.325,5.325,0,0,0,11.6,6.324,5.325,5.325,0,0,0,6.229,1.054,5.365,5.365,0,0,0,1.673,3.536h2V4.594H.506A.507.507,0,0,1,0,4.087V.9H1.051V2.583A6.485,6.485,0,0,1,6.229,0a6.38,6.38,0,0,1,6.421,6.324A6.381,6.381,0,0,1,6.229,12.649Zm1.76-3.255h0L5.311,6.717V3.793H6.323V6.3L8.7,8.679l-.715.714Z" fill="#666"/>
</svg>
