<svg xmlns="http://www.w3.org/2000/svg" width="19.447" height="20" viewBox="0 0 19.447 20">
  <g id="カレンダーのフリーアイコン20" transform="translate(-7.073)">
    <path id="Path_28316" data-name="Path 28316" d="M121.326,3.951a1.106,1.106,0,0,0,1.105-1.106V1.105a1.106,1.106,0,0,0-2.211,0v1.74A1.106,1.106,0,0,0,121.326,3.951Z" transform="translate(-108.714)" fill="#999"/>
    <path id="Path_28317" data-name="Path 28317" d="M334.948,3.951a1.106,1.106,0,0,0,1.105-1.106V1.105a1.106,1.106,0,0,0-2.211,0v1.74A1.106,1.106,0,0,0,334.948,3.951Z" transform="translate(-313.966)" fill="#999"/>
    <path id="Path_28318" data-name="Path 28318" d="M23.8,41.287h-.7v1.3a2.126,2.126,0,1,1-4.252,0v-1.3H14.75v1.3a2.126,2.126,0,1,1-4.252,0v-1.3H9.8a2.728,2.728,0,0,0-2.725,2.731V56.981A2.728,2.728,0,0,0,9.8,59.711h14a2.728,2.728,0,0,0,2.725-2.731V44.018A2.728,2.728,0,0,0,23.8,41.287Zm.58,15.214a1.266,1.266,0,0,1-1.263,1.265H10.48A1.266,1.266,0,0,1,9.218,56.5V46.359H24.376V56.5Z" transform="translate(0 -39.711)" fill="#999"/>
  </g>
</svg>
