<svg xmlns="http://www.w3.org/2000/svg" width="16.97" height="20" viewBox="0 0 16.97 20">
  <path id="Path_28289" data-name="Path 28289" d="M-454.344,4785a1.551,1.551,0,0,1-1.337-.771l-1.658-2.874a8.435,8.435,0,0,1-3.176.614,8.429,8.429,0,0,1-6-2.485,8.428,8.428,0,0,1-2.485-6,8.429,8.429,0,0,1,2.485-6,8.429,8.429,0,0,1,6-2.484,8.494,8.494,0,0,1,8.485,8.483,8.422,8.422,0,0,1-.729,3.445,8.464,8.464,0,0,1-1.977,2.767l1.726,2.989a1.532,1.532,0,0,1,.154,1.171,1.53,1.53,0,0,1-.719.937A1.547,1.547,0,0,1-454.344,4785Zm-6.171-17.687a6.178,6.178,0,0,0-6.171,6.171,6.178,6.178,0,0,0,6.171,6.17,6.177,6.177,0,0,0,6.17-6.17A6.178,6.178,0,0,0-460.515,4767.314Z" transform="translate(469.001 -4765.001)" fill="#333"/>
</svg>
