<svg xmlns="http://www.w3.org/2000/svg" width="24.001" height="24.851" viewBox="0 0 24.001 24.851">
  <g id="Group_31222" data-name="Group 31222" transform="translate(-10832.281 23779)">
    <g id="noun-logout-2857973" transform="translate(10832.281 -23779)">
      <g id="Group_28146" data-name="Group 28146" transform="translate(0 0)">
        <path id="Path_28126" data-name="Path 28126" d="M1.763,13.094,7.431,7.426a1.052,1.052,0,0,0,0-1.465L5.505,4.035Q3.983,2.521,2.462,1l-.7-.7A1.05,1.05,0,0,0,.3.3a1.055,1.055,0,0,0,0,1.465L5.966,7.431V5.966L.3,11.635A1.049,1.049,0,0,0,.3,13.1,1.06,1.06,0,0,0,1.763,13.094Z" transform="translate(14.214 19.119) rotate(180)" fill="#fff"/>
        <path id="Path_28127" data-name="Path 28127" d="M16.487,0H2.931C2.307,0,1.686,0,1.062,0H1.036A1.047,1.047,0,0,0,0,1.039,1.054,1.054,0,0,0,1.036,2.074H14.593c.624,0,1.245.008,1.869,0h.026a1.047,1.047,0,0,0,1.035-1.035A1.05,1.05,0,0,0,16.487,0Z" transform="translate(24.001 13.46) rotate(180)" fill="#fff"/>
        <path id="Path_28128" data-name="Path 28128" d="M128.86,37.745v2.021a2.88,2.88,0,0,1-.013.4c.013-.091.026-.184.036-.274a1.4,1.4,0,0,1-.083.3c.034-.083.07-.166.1-.248a1.4,1.4,0,0,1-.168.3l.163-.21a1.388,1.388,0,0,1-.238.238l.209-.163a1.325,1.325,0,0,1-.3.168l.249-.1a1.546,1.546,0,0,1-.3.083c.091-.013.184-.026.275-.036a4.729,4.729,0,0,1-.575.013H114.462c-.634,0-1.268,0-1.9,0a1.637,1.637,0,0,1-.2-.013c.09.013.184.026.274.036a1.382,1.382,0,0,1-.3-.083l.248.1a1.378,1.378,0,0,1-.295-.168l.209.163a1.368,1.368,0,0,1-.238-.238l.163.21a1.338,1.338,0,0,1-.168-.3c.034.083.07.166.1.248a1.563,1.563,0,0,1-.083-.3c.013.091.026.184.036.274a5.515,5.515,0,0,1-.013-.686V19.791a1.714,1.714,0,0,1,.013-.2c-.013.091-.026.184-.036.274a1.382,1.382,0,0,1,.083-.3c-.034.083-.07.166-.1.248a1.382,1.382,0,0,1,.168-.3l-.163.21a1.365,1.365,0,0,1,.238-.238l-.209.163a1.33,1.33,0,0,1,.295-.168l-.248.1a1.546,1.546,0,0,1,.3-.083c-.091.013-.184.026-.274.036a4.706,4.706,0,0,1,.574-.013H126.7c.634,0,1.268,0,1.9,0a1.643,1.643,0,0,1,.2.013c-.091-.013-.184-.026-.275-.036a1.387,1.387,0,0,1,.3.083l-.249-.1a1.373,1.373,0,0,1,.3.168l-.209-.163a1.392,1.392,0,0,1,.238.238l-.163-.21a1.338,1.338,0,0,1,.168.3c-.034-.083-.07-.166-.1-.248a1.562,1.562,0,0,1,.083.3c-.013-.091-.026-.184-.036-.274a6.761,6.761,0,0,1,.013.859v1.561a1.035,1.035,0,1,0,2.07,0V20.343c0-.191,0-.383,0-.572a2.332,2.332,0,0,0-1.188-2.021,2.785,2.785,0,0,0-1.364-.3H112.914c-.142,0-.287-.005-.432,0a2.335,2.335,0,0,0-1.982,1.216,2.466,2.466,0,0,0-.277,1.123c0,.5,0,1,0,1.5V39.966a2.315,2.315,0,0,0,2.317,2.334c.494.005.991,0,1.488,0H128.4a2.5,2.5,0,0,0,1.457-.365,2.382,2.382,0,0,0,1.072-1.954c0-.212,0-.427,0-.639v-1.6a1.035,1.035,0,0,0-2.07,0Z" transform="translate(-110.221 -17.452)" fill="#fff"/>
      </g>
    </g>
  </g>
</svg>
