<svg id="Component_29_4" data-name="Component 29 – 4" xmlns="http://www.w3.org/2000/svg" width="249.258" height="87.939" viewBox="0 0 249.258 87.939">
  <g id="Group_28070" data-name="Group 28070">
    <g id="Group_28009" data-name="Group 28009" transform="translate(167.892)">
      <path id="Path_28080" data-name="Path 28080" d="M596.209,189.839c-.569-1.11-1.079-2.249-1.649-3.359a11.209,11.209,0,0,0-1.345-2.062c-.528-.638-1.1-1.228-1.649-1.847-.723-.823-1.608-1.492-2.336-2.3a10.664,10.664,0,0,1-1.285-1.668,2.1,2.1,0,0,0-1.176-.862,1.73,1.73,0,0,1-1.024-.994,4.238,4.238,0,0,0-1.566-1.695,4.992,4.992,0,0,1-.605-.443c-.247-.241-.4-.184-.479.154a1.393,1.393,0,0,0-.022.3c-.018,1.155.007,2.309.084,3.463a.567.567,0,0,0,.074.282c.323.5.563,1.048.913,1.542a2.731,2.731,0,0,1,.572,1.606,8.565,8.565,0,0,0,.069,2,11.451,11.451,0,0,0,.793,1.62,3.98,3.98,0,0,1,.107,3.047c-.178.427-.5.848-.729,1.292a1.621,1.621,0,0,0,.01.7.922.922,0,0,1-.092.838.5.5,0,0,1-.206.048c-.64.038-.677,0-.7-.636-.006-.21.025-.431-.171-.594a.4.4,0,0,0-.4-.1c-.156.052-.115.207-.118.316-.005.216-.01.432,0,.647.007.245-.1.365-.342.362-.1,0-.2,0-.295,0-.3.017-.4-.136-.39-.413a3.426,3.426,0,0,0-.008-.464c-.033-.378-.216-.54-.633-.567a1.047,1.047,0,0,1-.255.051c-.514-.145-.714,0-.732.536-.009.27-.011.541,0,.811.023.5.232.638.726.5a.828.828,0,0,1,.258.059,3.394,3.394,0,0,0,1.52.01c.271-.012.53.08.8.083a1.208,1.208,0,0,0,.841-.224.323.323,0,0,1,.485-.011c.238.2.562.268.811.46a1.367,1.367,0,0,0,.46,1.142,3.9,3.9,0,0,1,.919,2.259.1.1,0,0,1,0,.042,2.647,2.647,0,0,0,.46,2.173c.139.27.319.518.479.777.564.92,1,1.911,1.505,2.86a9.521,9.521,0,0,1,1.03,2.389,2.011,2.011,0,0,1,.029.888,10,10,0,0,0-.075,3.134,6.944,6.944,0,0,1-.26,2.694,2.012,2.012,0,0,1-1.693,1.286,4.561,4.561,0,0,1-3.392-.684,20.806,20.806,0,0,1-2.4-1.935c-.555-.457-1.054-.973-1.571-1.464a8.629,8.629,0,0,1-1.014-.972,3.923,3.923,0,0,0,.069,1.675c.18.993.457,1.969.626,2.964a3.174,3.174,0,0,1-.09,1.221,1.374,1.374,0,0,0,.5,1.395,22.1,22.1,0,0,1,3.775,4.072,16.613,16.613,0,0,1,1.476,2.714,15.116,15.116,0,0,0,2.032,3.521.923.923,0,0,0,.411.283,2.758,2.758,0,0,1,1.685,1.841,2.578,2.578,0,0,0,.292.5,14.591,14.591,0,0,0,1.374,1.815c.468.48.9.993,1.346,1.486a3.52,3.52,0,0,1,.788,2.675c-.015.285-.61.818-.94.889a4.531,4.531,0,0,1-2.515-.318,12.375,12.375,0,0,1-3.124-1.748,5.164,5.164,0,0,1-1.413-1.666,13.075,13.075,0,0,1-1.089-2.135,2.731,2.731,0,0,0-.879-1.027c-.363-.338-.8-.594-1.161-.938-.294-.284-.64-.486-.953-.736-1.117-.893-2.3-1.713-3.32-2.712a5.054,5.054,0,0,1-1.274-1.753,13.2,13.2,0,0,0-.685-1.209c-.275-.534-.511-1.086-.775-1.625-.529-1.079-.974-2.2-1.457-3.3a7.392,7.392,0,0,0-.545-1.449,12.359,12.359,0,0,0-2.139-2.565,8.878,8.878,0,0,1-1.4-1.594,17.854,17.854,0,0,1-1.6-2.224.6.6,0,0,0-.65-.391c-.181.034-.214-.132-.268-.225a6.47,6.47,0,0,1-.959-2.315,1.225,1.225,0,0,0-.6-.914,3.065,3.065,0,0,1-1.025-.784,3.193,3.193,0,0,1-.386-2.378,1.8,1.8,0,0,0-.275-1.278.888.888,0,0,1-.043-.9,12.06,12.06,0,0,1,1.107-2.033c.146-.237.265-.49.4-.736.149-.277.066-.4-.246-.371a.832.832,0,0,0-.168.024c-.754.233-1.137.03-1.419-.723a5.731,5.731,0,0,1-.49-2.555,4.1,4.1,0,0,0-.561-2.215,18.152,18.152,0,0,1-.82-2.955,26.194,26.194,0,0,1-.662-3.174,2.561,2.561,0,0,1-.029-.552,3.973,3.973,0,0,0-.723-2.545,22.458,22.458,0,0,1-1.366-2.475.549.549,0,0,0-.5-.343c-.928-.068-1.85.07-2.776.09a.486.486,0,0,0-.441.345.462.462,0,0,1-.575.317,6.431,6.431,0,0,0-3.079.192c-1.257.282-2.5.623-3.768.864a19.6,19.6,0,0,1-4.487.322c-1.578-.066-3.165-.033-4.734-.186a5.2,5.2,0,0,0-2.47.524,3.766,3.766,0,0,1-2.076.22,11.275,11.275,0,0,1-1.139-.107.454.454,0,0,0-.446.2c-.37.444-.738.888-1.1,1.342a.548.548,0,0,1-.664.141c-.329-.116-.044-.39-.088-.672a1.838,1.838,0,0,0-.307.454c-.115.429-.451.384-.717.3-.33-.1-.244-.367-.135-.632.286-.7.7-1.336.952-2.051a.51.51,0,0,0,.018-.374,11.92,11.92,0,0,1-.992,1.8,2.62,2.62,0,0,0-.163.247c-.1.243-.3.193-.474.167s-.21-.2-.219-.36a1.924,1.924,0,0,1,.286-1.083,2.581,2.581,0,0,0,.34-.755c-.353.193-.648.373-.96.519-.193.091-.44.151-.575-.07a.421.421,0,0,1,.16-.53c.511-.441.859-1.029,1.411-1.442a3.7,3.7,0,0,1,2.258-.908,13.913,13.913,0,0,1,2.4.226,6.122,6.122,0,0,0,2-.016,5.159,5.159,0,0,1,1.051-.111,8.806,8.806,0,0,0,2.719-.384c1.355-.36,2.733-.624,4.083-1,.581-.162,1.158-.336,1.734-.515.871-.271,1.784-.379,2.643-.691a1.1,1.1,0,0,0,.448-.266,2.866,2.866,0,0,1,1.081-.52,13.471,13.471,0,0,1,2.664-.777,2.017,2.017,0,0,0,1.185-.837,1.13,1.13,0,0,1,1.535-.473,1.889,1.889,0,0,1,.623-1.771c.159-.155.371-.177.532-.333a23.424,23.424,0,0,1,1.909-1.727c.755-.584,1.212-1.421,1.89-2.052a9.562,9.562,0,0,1,1.645-1.147,19.308,19.308,0,0,0,1.823-1.107c.347-.262.761-.458,1.133-.714a1.381,1.381,0,0,0,.628-1.491c-.28.168-.055.469-.2.664a1.124,1.124,0,0,1-.482-1.15c.047-.237.072-.426-.255-.565-.7-.3-.813-1.017-1.023-1.655a4.347,4.347,0,0,1,.109-1.767c-.06.022-.083.029-.1.038-.135.058-.012.34-.227.3-.175-.035-.186-.247-.19-.378a2.076,2.076,0,0,1,.072-1.01c-.183-.018-.167.273-.347.184-.151-.074-.079-.23-.077-.344a4.849,4.849,0,0,1,.411-1.633c-.074-.078-.123-.048-.165-.009-.087.081-.195.17-.294.076-.054-.052-.05-.191-.034-.285a2.448,2.448,0,0,1,.543-1.3c.054-.059.142-.108.118-.207-.148-.2-.378.19-.479-.054s.113-.424.24-.6a2.346,2.346,0,0,1,.679-.81c-.2-.092-.23.159-.394.085-.089-.24.117-.391.243-.522a2.161,2.161,0,0,1,1.564-.819c.136,0,.271-.014.3-.172.117-.609.614-.826,1.1-1.1l.038.458c.313-.2.615-.4.915-.59.172-.112.376-.227.552-.106s-.09.285-.058.448c.211.113.333-.095.43-.18a3.374,3.374,0,0,1,2.46-.56.211.211,0,0,1,.206.123c.055.124-.07.13-.134.171-.225.148-.213.456-.477.616a13.458,13.458,0,0,1,1.7.11c.144.045.37.032.368.194,0,.208-.234.145-.381.162-.1.011-.161.125-.284.106a2.069,2.069,0,0,0,.885.3,1.349,1.349,0,0,1,.982.671c.3.846.978,1.512,1.073,2.445a9.086,9.086,0,0,1,.147,1.3c-.006.145.247.494-.209.473a.378.378,0,0,0-.011.158,2.163,2.163,0,0,1-.019,1.168c-.059.264-.049.266-.325.085a4.046,4.046,0,0,1-.108,1c-.037.083-.07.169-.163.171-.156,0-.047-.171-.18-.256a10.442,10.442,0,0,0,.112,1.333,10.448,10.448,0,0,1-.265,2.936c-.072.172.07.237.187.271a3.619,3.619,0,0,0,1.03.206,8.6,8.6,0,0,1,2.954.251,8.893,8.893,0,0,0,1.081.337,7.544,7.544,0,0,1,3.164,1.879,2.339,2.339,0,0,1,.511.787,6.2,6.2,0,0,0,1.367,1.863,2.582,2.582,0,0,1,.286.363,12.674,12.674,0,0,0,1.962,1.9,19.266,19.266,0,0,1,1.8,1.649,3.278,3.278,0,0,1,.837,1.129.81.81,0,0,0,.5.5c.515.19.834.656,1.311.91.2.108.254.428.259.688a6.965,6.965,0,0,1-.1,1.87,2.229,2.229,0,0,0,.636,2c.352.463.876.724,1.227,1.189a18.3,18.3,0,0,1,1.667,2.749c.547,1.073,1.156,2.124,1.594,3.241a28.318,28.318,0,0,1,1.212,2.713c.132.477.519.6.93.671a6.588,6.588,0,0,1,2.907,1.281,5.8,5.8,0,0,1,.986.8.8.8,0,0,1-.364,1.306c.244.65-.03,1.023-.766,1.019-.181,0-.135.116-.131.2a.643.643,0,0,1-.617.684,2.82,2.82,0,0,0-1.048.323,1.156,1.156,0,0,1-.628.049,10.851,10.851,0,0,1-2.247-.8c-.024-.011-.02-.079-.029-.12a2.055,2.055,0,0,1-.507-.774c-.1-.18.058-.351.137-.512s.2-.321.034-.5-.317-.092-.462-.008C596.379,190.277,596.359,189.944,596.209,189.839Z" transform="translate(-529.039 -146.721)" fill="#767676"/>
      <path id="Path_28081" data-name="Path 28081" d="M704.907,333.44a6.553,6.553,0,0,1,6.624,6.644,6.628,6.628,0,0,1-13.254.009A6.523,6.523,0,0,1,704.907,333.44Z" transform="translate(-630.539 -258.706)" fill="#23ac39"/>
    </g>
    <g id="Group_28010" data-name="Group 28010" transform="translate(181.188 21.648)">
      <path id="Path_28082" data-name="Path 28082" d="M627.924,240.254H601.706l-4.69,26.218h-13.35l4.69-26.218h-26.1l2.406-13.469h25.977l4.57-25.977h13.47l-4.57,25.977h26.218Z" transform="translate(-562.259 -200.807)" fill="#23ac39"/>
    </g>
    <path id="Path_28083" data-name="Path 28083" d="M363.337,250.359c.039-.714.074-1.359.111-2.034C363.94,249.2,363.983,249.848,363.337,250.359Z" transform="translate(-261.767 -207.658)" fill="#fcfcfc"/>
    <path id="Path_28084" data-name="Path 28084" d="M291.921,263.382a1.792,1.792,0,0,1-1.093-.208,7.063,7.063,0,0,0-2.3-.7,1.964,1.964,0,0,0-.713-.088c-.058-.4.13-.53.488-.521a4.29,4.29,0,0,1,1.392.1,2.933,2.933,0,0,1,.865.552C290.95,262.852,291.438,263.037,291.921,263.382Z" transform="translate(-216.463 -215.772)" fill="#fcfcfc"/>
    <g id="Group_28011" data-name="Group 28011" transform="translate(0 35.61)">
      <path id="Path_28085" data-name="Path 28085" d="M109.569,265.128l4.394-5.589a17.453,17.453,0,0,0,9.9,3.669c3.029,0,5.674-1.194,5.674-3.711,0-2.176-1.92-2.688-6.4-3.8-5.247-1.322-9.513-3.37-9.513-8.916,0-5.93,4.906-11.091,13.992-11.091a19.71,19.71,0,0,1,12.414,4.223l-3.882,5.588c-3.242-2.431-6.271-3.626-9.129-3.626-3.242,0-5.076,1.536-5.076,3.5,0,2.09,2.133,2.645,6.313,3.711,5.844,1.493,9.641,3.712,9.641,9.172,0,6.953-6.228,11.134-14.973,11.134A22.084,22.084,0,0,1,109.569,265.128Z" transform="translate(-109.569 -235.693)" fill="#fff"/>
      <path id="Path_28086" data-name="Path 28086" d="M203.586,235.693c9.641,0,14.547,6.015,14.547,14.333,0,9.812-6.783,19.368-18.983,19.368-9.641,0-14.547-6.015-14.547-14.376C184.6,245.248,191.386,235.693,203.586,235.693Zm-3.669,27.387c6.4,0,9.769-6.953,9.769-12.627,0-4.479-2.048-8.446-6.868-8.446-6.4,0-9.769,6.911-9.769,12.585C193.049,259.113,195.1,263.08,199.918,263.08Z" transform="translate(-154.571 -235.693)" fill="#fff"/>
      <path id="Path_28087" data-name="Path 28087" d="M298.961,262.4a17.234,17.234,0,0,1-13.907,6.953c-9.684,0-14.547-6.143-14.547-14.248,0-9.726,7.039-19.41,19.026-19.41,6.186,0,10.281,2.517,12.414,7.039l-6.314,3.754c-1.451-3.114-3.541-4.479-6.228-4.479-6.953,0-10.452,6.783-10.452,12.67,0,4.778,2.3,8.4,6.953,8.4,3.583,0,5.887-2.133,7.593-4.565Z" transform="translate(-206.092 -235.693)" fill="#fff"/>
      <path id="Path_28088" data-name="Path 28088" d="M375.165,262.4a17.234,17.234,0,0,1-13.907,6.953c-9.684,0-14.547-6.143-14.547-14.248,0-9.726,7.039-19.41,19.026-19.41,6.185,0,10.281,2.517,12.414,7.039l-6.314,3.754c-1.451-3.114-3.541-4.479-6.228-4.479-6.953,0-10.452,6.783-10.452,12.67,0,4.778,2.3,8.4,6.954,8.4,3.583,0,5.887-2.133,7.593-4.565Z" transform="translate(-251.796 -235.693)" fill="#fff"/>
      <path id="Path_28089" data-name="Path 28089" d="M420.357,269.628l5.248-32.763h23.377l-1.024,6.356h-15.1l-1.066,6.74h13.054l-1.023,6.313H430.766l-1.109,7h15.4l-1.024,6.356Z" transform="translate(-295.965 -236.396)" fill="#fff"/>
      <path id="Path_28090" data-name="Path 28090" d="M508.556,236.865c5.076,0,9.129,3.328,9.129,8.617a10.367,10.367,0,0,1-7.295,9.9l4.522,14.248h-8.958l-3.541-12.414h-5.375l-1.962,12.414h-8.319L492,236.865Zm-10.494,14.12h6.228c2.944,0,4.949-1.706,4.949-4.436,0-2.133-1.451-3.37-3.754-3.37H499.3Z" transform="translate(-335.789 -236.396)" fill="#fff"/>
    </g>
    <g id="Group_28012" data-name="Group 28012" transform="translate(7.148 72.44)">
      <path id="Path_28091" data-name="Path 28091" d="M127.428,335.236l.891-.7a2.911,2.911,0,0,0,2.433,1.2c1.222,0,2.193-.606,2.193-1.645,0-.834-.594-1.028-1.827-1.416-1.348-.423-2.6-.834-2.6-2.307,0-1.553,1.394-2.661,3.312-2.661a3.623,3.623,0,0,1,2.992,1.348l-.834.731a2.8,2.8,0,0,0-2.273-1.085c-1.119,0-2.01.617-2.01,1.531,0,.8.685,1.051,1.873,1.428,1.4.445,2.558.8,2.558,2.284,0,1.691-1.451,2.787-3.506,2.787A3.681,3.681,0,0,1,127.428,335.236Z" transform="translate(-127.428 -327.71)" fill="#fff"/>
      <path id="Path_28092" data-name="Path 28092" d="M154.178,334.3a2.6,2.6,0,0,1,2.73,2.753,3.491,3.491,0,0,1-3.381,3.632,2.617,2.617,0,0,1-2.73-2.741A3.515,3.515,0,0,1,154.178,334.3Zm-.571,5.459a2.441,2.441,0,0,0,2.2-2.672,1.673,1.673,0,0,0-1.7-1.862,2.44,2.44,0,0,0-2.215,2.65A1.705,1.705,0,0,0,153.607,339.76Z" transform="translate(-141.444 -331.663)" fill="#fff"/>
      <path id="Path_28093" data-name="Path 28093" d="M177.686,339.281a3.089,3.089,0,0,1-2.615,1.4,2.512,2.512,0,0,1-2.615-2.707,3.561,3.561,0,0,1,3.472-3.678,2.27,2.27,0,0,1,2.273,1.462l-.959.457a1.441,1.441,0,0,0-1.428-.994,2.517,2.517,0,0,0-2.261,2.718,1.6,1.6,0,0,0,1.622,1.816,2.02,2.02,0,0,0,1.736-1Z" transform="translate(-154.434 -331.663)" fill="#fff"/>
      <path id="Path_28094" data-name="Path 28094" d="M197.09,339.281a3.089,3.089,0,0,1-2.615,1.4,2.512,2.512,0,0,1-2.615-2.707,3.561,3.561,0,0,1,3.472-3.678,2.27,2.27,0,0,1,2.273,1.462l-.959.457a1.44,1.44,0,0,0-1.427-.994,2.517,2.517,0,0,0-2.261,2.718,1.6,1.6,0,0,0,1.622,1.816,2.021,2.021,0,0,0,1.736-1Z" transform="translate(-166.071 -331.663)" fill="#fff"/>
      <path id="Path_28095" data-name="Path 28095" d="M212.308,337.922v.011a1.614,1.614,0,0,0,1.679,1.827,2.027,2.027,0,0,0,1.61-.754l.674.64a3.091,3.091,0,0,1-2.387,1.039,2.511,2.511,0,0,1-2.65-2.718,3.483,3.483,0,0,1,3.335-3.666,2.223,2.223,0,0,1,2.341,2.467,3.7,3.7,0,0,1-.183,1.153Zm3.529-.9a1.217,1.217,0,0,0,.012-.206c0-.959-.446-1.6-1.382-1.6a2.207,2.207,0,0,0-2.033,1.8Z" transform="translate(-177.691 -331.663)" fill="#fff"/>
      <path id="Path_28096" data-name="Path 28096" d="M232.505,334.427h1.051l-.126.925h.023A2.092,2.092,0,0,1,235.2,334.3a1.18,1.18,0,0,1,.491.091l-.171,1.039a2.117,2.117,0,0,0-.537-.069,1.778,1.778,0,0,0-1.781,1.485l-.594,3.712h-1.085Z" transform="translate(-189.859 -331.663)" fill="#fff"/>
      <path id="Path_28097" data-name="Path 28097" d="M265.37,334.871a4.229,4.229,0,0,1-3.495,1.862,3.441,3.441,0,0,1-3.529-3.769c0-2.558,1.793-5.253,4.785-5.253a3.032,3.032,0,0,1,3.049,1.919l-1.028.491a2.093,2.093,0,0,0-2.124-1.416c-2.238,0-3.495,2.17-3.495,4.169,0,1.576.788,2.867,2.444,2.867a3.1,3.1,0,0,0,2.57-1.462Z" transform="translate(-205.946 -327.71)" fill="#fff"/>
      <path id="Path_28098" data-name="Path 28098" d="M285.639,334.3a2.6,2.6,0,0,1,2.729,2.753,3.491,3.491,0,0,1-3.38,3.632,2.617,2.617,0,0,1-2.73-2.741A3.515,3.515,0,0,1,285.639,334.3Zm-.571,5.459a2.44,2.44,0,0,0,2.2-2.672,1.673,1.673,0,0,0-1.7-1.862,2.44,2.44,0,0,0-2.215,2.65A1.706,1.706,0,0,0,285.068,339.76Z" transform="translate(-220.288 -331.663)" fill="#fff"/>
      <path id="Path_28099" data-name="Path 28099" d="M305.716,335.272a2.39,2.39,0,0,1,1.941-.971,1.637,1.637,0,0,1,1.667,1.085,2.676,2.676,0,0,1,2.147-1.085,1.643,1.643,0,0,1,1.781,1.713,2.484,2.484,0,0,1-.034.389l-.663,4.157h-1.085l.64-4a1.939,1.939,0,0,0,.034-.343.916.916,0,0,0-1.051-.982,1.742,1.742,0,0,0-1.77,1.485l-.616,3.837h-1.085l.64-4a1.931,1.931,0,0,0,.034-.343.916.916,0,0,0-1.051-.982,1.757,1.757,0,0,0-1.782,1.542l-.606,3.78h-1.085l.982-6.133h1.051l-.115.845Z" transform="translate(-233.192 -331.663)" fill="#fff"/>
      <path id="Path_28100" data-name="Path 28100" d="M336.191,335.272a2.391,2.391,0,0,1,1.942-.971,1.637,1.637,0,0,1,1.667,1.085,2.675,2.675,0,0,1,2.147-1.085,1.644,1.644,0,0,1,1.782,1.713,2.438,2.438,0,0,1-.035.389l-.662,4.157h-1.085l.64-4a1.932,1.932,0,0,0,.035-.343.916.916,0,0,0-1.051-.982,1.742,1.742,0,0,0-1.77,1.485l-.617,3.837H338.1l.64-4a1.9,1.9,0,0,0,.034-.343.916.916,0,0,0-1.051-.982,1.757,1.757,0,0,0-1.782,1.542l-.605,3.78H334.25l.982-6.133h1.051l-.115.845Z" transform="translate(-251.47 -331.663)" fill="#fff"/>
      <path id="Path_28101" data-name="Path 28101" d="M370.355,340.748h-1.062l.126-.9H369.4a2.612,2.612,0,0,1-2.09,1.028,1.738,1.738,0,0,1-1.9-1.793,2.28,2.28,0,0,1,.034-.388l.651-4.077h1.085l-.617,3.86a2.423,2.423,0,0,0-.034.377,1,1,0,0,0,1.153,1.085,1.946,1.946,0,0,0,1.987-1.667l.582-3.655h1.085Z" transform="translate(-270.158 -331.851)" fill="#fff"/>
      <path id="Path_28102" data-name="Path 28102" d="M387.336,334.427h1.051l-.126.913h.023a2.612,2.612,0,0,1,2.1-1.039,1.738,1.738,0,0,1,1.9,1.793,2.334,2.334,0,0,1-.034.388l-.651,4.077h-1.085l.617-3.86a2.462,2.462,0,0,0,.034-.377,1,1,0,0,0-1.154-1.085,1.946,1.946,0,0,0-1.987,1.667l-.583,3.655h-1.085Z" transform="translate(-282.72 -331.663)" fill="#fff"/>
      <path id="Path_28103" data-name="Path 28103" d="M407.984,336.794l.982-6.133h1.085l-.982,6.133Zm1.359-8.771h1.176l-.194,1.177h-1.176Z" transform="translate(-295.692 -327.898)" fill="#fff"/>
      <path id="Path_28104" data-name="Path 28104" d="M419.547,331.706h1.222l.309-1.941h1.085l-.308,1.941h1.473l-.148.9h-1.473L421.168,336a2.345,2.345,0,0,0-.034.365c0,.434.172.662.845.662a2.511,2.511,0,0,0,.5-.046l-.149.879a4.323,4.323,0,0,1-.891.1c-.925,0-1.428-.468-1.428-1.314a3.312,3.312,0,0,1,.046-.513l.56-3.529H419.4Z" transform="translate(-302.538 -328.943)" fill="#fff"/>
      <path id="Path_28105" data-name="Path 28105" d="M439.4,334.615l-3.666,6.6c-.776,1.4-1.313,1.748-2.261,1.748a1.891,1.891,0,0,1-.72-.126l.137-.879a1.491,1.491,0,0,0,.5.08c.6,0,.959-.251,1.4-1.131l.058-.114-1.439-6.179h1.154l1.017,4.9h.023l2.615-4.9Z" transform="translate(-310.547 -331.851)" fill="#fff"/>
      <path id="Path_28106" data-name="Path 28106" d="M463.827,335.236l.891-.7a2.911,2.911,0,0,0,2.433,1.2c1.222,0,2.193-.606,2.193-1.645,0-.834-.594-1.028-1.827-1.416-1.348-.423-2.6-.834-2.6-2.307,0-1.553,1.394-2.661,3.312-2.661a3.624,3.624,0,0,1,2.993,1.348l-.834.731a2.8,2.8,0,0,0-2.273-1.085c-1.119,0-2.01.617-2.01,1.531,0,.8.685,1.051,1.873,1.428,1.4.445,2.558.8,2.558,2.284,0,1.691-1.45,2.787-3.506,2.787A3.682,3.682,0,0,1,463.827,335.236Z" transform="translate(-329.184 -327.71)" fill="#fff"/>
      <path id="Path_28107" data-name="Path 28107" d="M487.084,336.794l.982-6.133h1.085l-.982,6.133Zm1.359-8.771h1.176l-.194,1.177h-1.176Z" transform="translate(-343.133 -327.898)" fill="#fff"/>
      <path id="Path_28108" data-name="Path 28108" d="M498.647,331.706h1.222l.308-1.941h1.085l-.308,1.941h1.473l-.148.9h-1.473L500.268,336a2.239,2.239,0,0,0-.034.365c0,.434.171.662.845.662a2.509,2.509,0,0,0,.5-.046l-.148.879a4.325,4.325,0,0,1-.891.1c-.925,0-1.427-.468-1.427-1.314a3.351,3.351,0,0,1,.045-.513l.56-3.529H498.5Z" transform="translate(-349.978 -328.943)" fill="#fff"/>
      <path id="Path_28109" data-name="Path 28109" d="M514.124,337.922v.011a1.614,1.614,0,0,0,1.679,1.827,2.027,2.027,0,0,0,1.61-.754l.674.64a3.091,3.091,0,0,1-2.386,1.039,2.511,2.511,0,0,1-2.65-2.718,3.483,3.483,0,0,1,3.335-3.666,2.223,2.223,0,0,1,2.341,2.467,3.694,3.694,0,0,1-.182,1.153Zm3.529-.9a1.248,1.248,0,0,0,.011-.206c0-.959-.445-1.6-1.382-1.6a2.206,2.206,0,0,0-2.033,1.8Z" transform="translate(-358.707 -331.663)" fill="#fff"/>
    </g>
    <g id="Group_28013" data-name="Group 28013" transform="translate(205.135 51.1)">
      <path id="Path_28110" data-name="Path 28110" d="M626.092,274.614a1.866,1.866,0,0,1,1.986,1.879,2.421,2.421,0,0,1-2.656,2.345h-1.414l-.327,2.051h-1.593l1.006-6.276Zm-.76,3.015a1.009,1.009,0,0,0,1.128-1.021.764.764,0,0,0-.858-.785h-1.111l-.286,1.806Z" transform="translate(-622.088 -274.524)" fill="#f6f6f6"/>
      <path id="Path_28111" data-name="Path 28111" d="M638.053,274.614h1.6l-.809,5.042h2.819l-.2,1.234h-4.421Z" transform="translate(-631.06 -274.524)" fill="#f6f6f6"/>
      <path id="Path_28112" data-name="Path 28112" d="M656.12,278.5a2.813,2.813,0,0,1-3.089,2.484c-1.471,0-2.533-.686-2.533-2.035a3.139,3.139,0,0,1,.032-.45l.621-3.881h1.6l-.621,3.931a1.8,1.8,0,0,0-.024.261.905.905,0,0,0,1.029.964,1.344,1.344,0,0,0,1.414-1.2l.638-3.955h1.552Z" transform="translate(-639.127 -274.524)" fill="#f6f6f6"/>
      <path id="Path_28113" data-name="Path 28113" d="M665.273,280.028l.842-1.071a3.341,3.341,0,0,0,1.9.7c.581,0,1.087-.229,1.087-.711,0-.417-.368-.515-1.226-.727-1.006-.253-1.823-.646-1.823-1.708,0-1.136.94-2.125,2.68-2.125a3.777,3.777,0,0,1,2.378.809l-.744,1.07a2.961,2.961,0,0,0-1.749-.694c-.621,0-.973.294-.973.67,0,.4.409.507,1.21.711,1.119.286,1.846.711,1.846,1.757,0,1.332-1.193,2.133-2.868,2.133A4.23,4.23,0,0,1,665.273,280.028Z" transform="translate(-647.989 -274.39)" fill="#f6f6f6"/>
    </g>
  </g>
</svg>
