<svg xmlns="http://www.w3.org/2000/svg" style="display: none;">

  <symbol viewBox="0 0 17.35 19" id="icon-logout">
    <path id="icon-logout" data-name="icon-logout" d="M427.631,148.524l4.333-4.334a.8.8,0,0,0,0-1.12l-1.472-1.472q-1.164-1.158-2.327-2.323l-.534-.534a.792.792,0,0,0-1.12,1.12l4.333,4.333v-1.12l-4.333,4.334a.791.791,0,1,0,1.12,1.116Z" transform="translate(-414.847 -134.132)"/>
    <path id="icon-logout" data-name="icon-logout" d="M232.047,258.05H221.683c-.477,0-.952-.006-1.429,0h-.02a.792.792,0,0,0,0,1.583H230.6c.477,0,.952.006,1.429,0h.02a.792.792,0,0,0,0-1.583Z" transform="translate(-215.49 -249.341)"/>
    <path id="icon-logout" data-name="icon-logout" d="M124.472,32.968v1.545a2.2,2.2,0,0,1-.01.3c.01-.069.02-.141.028-.21a1.07,1.07,0,0,1-.063.231c.026-.063.053-.127.079-.19a1.067,1.067,0,0,1-.129.226l.125-.16a1.061,1.061,0,0,1-.182.182l.16-.125a1.013,1.013,0,0,1-.226.129l.19-.079a1.182,1.182,0,0,1-.232.063c.069-.01.141-.02.21-.028a3.615,3.615,0,0,1-.439.01H113.464c-.485,0-.97,0-1.455,0a1.251,1.251,0,0,1-.15-.01c.069.01.14.02.21.028a1.057,1.057,0,0,1-.232-.063l.19.079a1.054,1.054,0,0,1-.225-.129l.16.125a1.046,1.046,0,0,1-.182-.182l.125.16a1.023,1.023,0,0,1-.129-.226c.026.063.053.127.079.19a1.194,1.194,0,0,1-.063-.231c.01.069.02.14.028.21a4.218,4.218,0,0,1-.01-.524V19.241a1.31,1.31,0,0,1,.01-.154c-.01.069-.02.14-.028.21a1.056,1.056,0,0,1,.063-.232c-.026.063-.053.127-.079.19a1.057,1.057,0,0,1,.129-.226l-.125.16a1.044,1.044,0,0,1,.182-.182l-.16.125a1.017,1.017,0,0,1,.225-.129l-.19.079a1.182,1.182,0,0,1,.232-.063c-.069.01-.141.02-.21.028a3.6,3.6,0,0,1,.439-.01h10.519c.485,0,.97,0,1.454,0a1.257,1.257,0,0,1,.151.01c-.069-.01-.141-.02-.21-.028a1.06,1.06,0,0,1,.232.063l-.19-.079a1.05,1.05,0,0,1,.226.129l-.16-.125a1.064,1.064,0,0,1,.182.182l-.125-.16a1.023,1.023,0,0,1,.129.226c-.026-.063-.053-.127-.079-.19a1.194,1.194,0,0,1,.063.232c-.01-.069-.02-.141-.028-.21a5.17,5.17,0,0,1,.01.657v1.193a.792.792,0,1,0,1.583,0V19.662c0-.146,0-.293,0-.437a1.783,1.783,0,0,0-.908-1.545,2.129,2.129,0,0,0-1.043-.226H112.28c-.109,0-.22,0-.331,0a1.785,1.785,0,0,0-1.516.93,1.885,1.885,0,0,0-.212.859c0,.384,0,.766,0,1.15V34.665a1.77,1.77,0,0,0,1.771,1.785c.378,0,.758,0,1.138,0h10.99a1.913,1.913,0,0,0,1.114-.279,1.821,1.821,0,0,0,.819-1.494c0-.162,0-.327,0-.489V32.968a.792.792,0,0,0-1.583,0Z" transform="translate(-110.221 -17.452)"/>
  </symbol>

    <symbol viewBox="0 0 12.986 11" id="icon_arrow_right">
      <path id="Path_28129" data-name="Path 28129" d="M12.155,6.332H2.84L6.088,9.58a.832.832,0,1,1-1.176,1.176L.244,6.088a.825.825,0,0,1-.056-.062L.168,6C.158,5.987.149,5.975.14,5.962S.126,5.938.119,5.926L.1,5.892C.092,5.88.086,5.867.08,5.855S.068,5.831.063,5.818.054,5.793.05,5.781s-.01-.026-.014-.04S.029,5.716.026,5.7s-.007-.027-.01-.041,0-.03-.007-.045,0-.024-.005-.036a.84.84,0,0,1,0-.164c0-.012,0-.024.005-.036s0-.03.007-.045S.023,5.31.026,5.3s.006-.025.01-.038.009-.027.014-.04.009-.025.014-.037.011-.024.017-.037S.092,5.12.1,5.108s.014-.023.021-.035S.132,5.05.14,5.038.159,5.013.168,5l.02-.027a.825.825,0,0,1,.056-.062L4.912.244A.832.832,0,0,1,6.088,1.42L2.84,4.668h9.315a.832.832,0,1,1,0,1.664Z" transform="translate(12.986 11) rotate(180)" />
    </symbol>
    <symbol width="7.198" height="12" viewBox="0 0 7.198 12" id="icon_prev">
        <g transform="translate(17.205 18.007) rotate(180)">
            <path id="Path_26448" data-name="Path 26448" d="M14.421,12.008l-4.078,4.045a1.144,1.144,0,0,0,0,1.619,1.165,1.165,0,0,0,1.635,0l4.892-4.855a1.144,1.144,0,0,0,0-1.619L11.977,6.342a1.165,1.165,0,0,0-1.635,0,1.143,1.143,0,0,0,0,1.618Z" transform="translate(0 0)"/>
        </g>
    </symbol>
    <symbol width="7.198" height="12" viewBox="0 0 7.198 12" id="icon_next">
        <g transform="translate(-10.006 -6.007)">
            <path id="Path_26448" data-name="Path 26448" d="M14.421,12.008l-4.078,4.045a1.144,1.144,0,0,0,0,1.619,1.165,1.165,0,0,0,1.635,0l4.892-4.855a1.144,1.144,0,0,0,0-1.619L11.977,6.342a1.165,1.165,0,0,0-1.635,0,1.143,1.143,0,0,0,0,1.618Z" transform="translate(0 0)"/>
        </g>
    </symbol>
    <svg viewBox="0 0 24.267 26" id="icon_color_team">
        <path id="Path_28143" data-name="Path 28143" d="M23.088,13.9l.145.4a16.441,16.441,0,0,1,5.9-1.982,2.16,2.16,0,0,1-.386-.385A17.233,17.233,0,0,0,23.088,13.9Zm17.431-.115-.135.406a14.262,14.262,0,0,0-5.482-1.87,2.14,2.14,0,0,0,.359-.392,14.959,14.959,0,0,1,5.258,1.856Zm-17.654-.1,2.382-1.241a23.969,23.969,0,0,1,3.308-.838,1.231,1.231,0,0,1-.1-.438c-.44.089-.878.185-1.31.289l1.389-.724a1.337,1.337,0,0,1,.6-.674c-.471.676-.083,1.378.7,1.8,1.871,1.011,5.131.307,5.131-1.194a1.065,1.065,0,0,0-.23-.645,1.548,1.548,0,0,1,.793.806l.993.536q-.485-.111-.978-.208a1.327,1.327,0,0,1-.095.44,22.168,22.168,0,0,1,2.721.657l2.656,1.433,1.66,1.425,1.562,6.8c.535,1.691.16,1.726-1.635,2.318-1.986.656-2.21.478-2.61-.892l-.426-1.016L38.9,26.048,39.316,35a.629.629,0,0,1-.6.74l-13.648-.047c-.723-.02-.763-.161-.695-.9l.841-8.74-.244-4.137-.429,1.777c-.109,1.631-1.155,1.126-2.67.889-1.443-.408-2.181-.327-1.759-1.849l1.633-7.619,1.116-1.425ZM29.489,9.9a9.547,9.547,0,0,1,2.341-.15,9.715,9.715,0,0,1,2.548.133,1.045,1.045,0,0,1,.417.777c0,1.327-3.1,2.015-4.887,1.047-.847-.458-1.115-1.188-.418-1.807Z" transform="translate(-19.999 -9.735)" fill="" fill-rule="evenodd"/>
    </svg>
    <symbol viewBox="0 0 29.833 40" id="icon_report">
        <path id="noun-report-4857127" d="M150.65,2.962h1.575a3.995,3.995,0,0,1,7.716,0h10.028A1.029,1.029,0,0,1,171,3.991V38.97A1.029,1.029,0,0,1,169.968,40H142.193a1.029,1.029,0,0,1-1.029-1.029V3.991a1.029,1.029,0,0,1,1.029-1.029h8.457ZM146.626,33.44a1.023,1.023,0,0,1,1.318-1.566l.444.373.993-1.171a1.026,1.026,0,1,1,1.566,1.326L149.3,34.353h0a1.024,1.024,0,0,1-1.439.122Zm0-6.172a1.025,1.025,0,0,1,1.318-1.569l.444.376.993-1.173a1.026,1.026,0,1,1,1.566,1.326L149.3,28.179h0a1.022,1.022,0,0,1-1.439.122Zm0-12.347a1.023,1.023,0,0,1,1.318-1.566l.444.373.993-1.171a1.026,1.026,0,1,1,1.566,1.326L149.3,15.835l0,0a1.022,1.022,0,0,1-1.439.124Zm0,6.172a1.023,1.023,0,0,1,1.318-1.566l.444.373.993-1.171a1.026,1.026,0,1,1,1.566,1.326L149.3,22.007h0a1.024,1.024,0,0,1-1.439.122Zm7.388,12.649a1.028,1.028,0,1,1,0-2.055h10.862a1.028,1.028,0,1,1,0,2.055Zm0-18.519a1.029,1.029,0,0,1,0-2.058h10.862a1.029,1.029,0,0,1,0,2.058Zm0,6.172a1.028,1.028,0,1,1,0-2.055h10.862a1.028,1.028,0,1,1,0,2.055Zm0,6.175a1.029,1.029,0,0,1,0-2.058h10.862a1.029,1.029,0,0,1,0,2.058Zm8.527-22.55V7.941a1.029,1.029,0,0,1-1.029,1.029H150.65a1.029,1.029,0,0,1-1.029-1.029V5.021h-6.4V37.942h25.72V5.021Zm-9.424,0h-1.439V6.912h8.807V5.021h-1.442a1.029,1.029,0,0,1-1.029-1.029,1.926,1.926,0,0,0-.566-1.368v0a1.935,1.935,0,0,0-3.3,1.371,1.029,1.029,0,0,1-1.029,1.029Z" transform="translate(-141.164 0.001)"/>
    </symbol>
    <symbol viewBox="0 0 40 40" id="icon_ball">
        <path id="Path_28288" data-name="Path 28288" d="M107.5,17.5a20.023,20.023,0,1,0,14.135,5.865A20,20,0,0,0,107.5,17.5Zm.714,5.766,6.953-2.779a18.778,18.778,0,0,1,2.284,1.231l.018.011h0a18.833,18.833,0,0,1,2.058,1.509l.056.049q.438.373.852.772c.035.034.071.067.106.1q.434.424.841.874l.067.077c.238.267.467.543.689.823l.159.2c.241.312.474.629.694.957L121.6,32.984l-6.819,2.273L108.212,30ZM92.7,26.139l.158-.2q.329-.417.681-.815l.074-.085q.4-.451.837-.874c.033-.033.067-.067.1-.1q.411-.4.845-.767l.067-.056h0a18.85,18.85,0,0,1,2.039-1.5l.026-.017A18.782,18.782,0,0,1,99.8,20.5l6.984,2.766V30l-6.569,5.255-6.819-2.269-1.386-5.892c.222-.327.453-.643.692-.954ZM91.9,47.73q-.294-.448-.562-.913l-.043-.075q-.267-.463-.5-.941l-.005-.01h0a18.569,18.569,0,0,1-.878-2.067v-.007c-.119-.333-.227-.675-.327-1.018l-.036-.127q-.138-.484-.249-.979c-.007-.032-.015-.063-.021-.095h0a18.424,18.424,0,0,1-.352-2.258l4.07-4.884,6.772,2.257,1.965,7.861-3.229,4.3Zm20.039,7.9c-.333.083-.675.154-1.017.218l-.145.026c-.291.052-.586.1-.881.133l-.235.03c-.274.032-.551.056-.828.076-.087.006-.173.015-.261.02-.355.022-.712.035-1.072.035q-.495,0-.983-.026c-.039,0-.077-.007-.117-.009q-.435-.025-.867-.067l-.033-.006a19.018,19.018,0,0,1-1.88-.3l-3.943-6.174,3.179-4.239h9.29l3.231,4.267ZM125.727,41.5c-.007.032-.015.063-.021.095q-.112.494-.249.979l-.036.127c-.1.343-.208.683-.327,1.018v.007h0a18.531,18.531,0,0,1-.878,2.067l-.005.01q-.239.479-.5.941l-.043.075q-.267.467-.561.912l-6.577,1.037-3.252-4.293,1.965-7.859,6.772-2.257,4.07,4.884h0a18.567,18.567,0,0,1-.352,2.259Z" transform="translate(-87.497 -17.5)"/>
    </symbol>
    <symbol viewBox="0 0 40 32" id="icon_chart">
        <g id="Group_28874" data-name="Group 28874" transform="translate(-843 -882)">
            <rect id="Rectangle_12723" data-name="Rectangle 12723" width="40" height="6" rx="2" transform="translate(843 882)"/>
            <rect id="Rectangle_12724" data-name="Rectangle 12724" width="18" height="6" rx="2" transform="translate(843 890)"/>
            <rect id="Rectangle_12725" data-name="Rectangle 12725" width="26" height="6" rx="2" transform="translate(843 901)"/>
            <rect id="Rectangle_12726" data-name="Rectangle 12726" width="10" height="6" rx="2" transform="translate(843 908)"/>
        </g>
    </symbol>
    <symbol viewBox="0 0 51.408 36" id="icon_ytb">
        <path id="Path_28285" data-name="Path 28285" d="M48.839,78.659A5.027,5.027,0,0,0,45.6,75.9a120.74,120.74,0,0,0-39.794,0A5.027,5.027,0,0,0,2.57,78.659a37.209,37.209,0,0,0,0,27.175A5.027,5.027,0,0,0,5.807,108.6a120.74,120.74,0,0,0,39.794,0,5.028,5.028,0,0,0,3.238-2.762A37.212,37.212,0,0,0,48.839,78.659ZM33.722,93.095c-4.428,2.493-6.694,3.813-10.973,6.283a1.014,1.014,0,0,1-1.5-.874c-.117-5.006-.117-7.51,0-12.516a1.019,1.019,0,0,1,1.5-.88C27.027,87.58,29.293,88.9,33.722,91.4A.965.965,0,0,1,33.722,93.095Z" transform="translate(0 -74.246)"/>
    </symbol>
    <symbol width="20" height="20" viewBox="0 0 20 20" id="icon_arrow_down">
        <g data-name="Group 28529" transform="translate(-473 -648)">
            <circle id="Ellipse_496" data-name="Ellipse 496" cx="10" cy="10" r="10" transform="translate(473 648)"/>
            <path id="Polygon_9" data-name="Polygon 9" d="M3.106,1.789a1,1,0,0,1,1.789,0L7.276,6.553A1,1,0,0,1,6.382,8H1.618A1,1,0,0,1,.724,6.553Z" transform="translate(487 663) rotate(180)" fill="#fff"/>
        </g>
    </symbol>

    <symbol viewBox="0 0 55.417 59.375" id="color-teams">
        <path id="Path_27107" data-name="Path 27107" d="M27.054,19.238l.331.922c3.762-2.44,8.57-3.611,13.483-4.527a4.932,4.932,0,0,1-.882-.879c-4.684.945-9.236,2.191-12.931,4.484Zm39.807-.263-.308.927c-3.493-2.368-7.957-3.447-12.52-4.27a4.887,4.887,0,0,0,.82-.9c4.349.856,8.575,2.015,12.007,4.238Zm-40.315-.223,5.44-2.834A54.738,54.738,0,0,1,39.541,14a2.812,2.812,0,0,1-.233-1c-1.006.2-2.006.422-2.992.66l3.172-1.653a3.052,3.052,0,0,1,1.359-1.54c-1.077,1.543-.19,3.146,1.6,4.113,4.272,2.308,11.717.7,11.717-2.728a2.433,2.433,0,0,0-.526-1.473,3.536,3.536,0,0,1,1.811,1.841l2.267,1.223q-1.108-.253-2.234-.475a3.03,3.03,0,0,1-.216,1.006,50.625,50.625,0,0,1,6.213,1.5l6.065,3.273,3.791,3.255L74.9,37.541c1.221,3.862.364,3.941-3.734,5.294-4.536,1.5-5.047,1.091-5.961-2.038l-.972-2.319-1.07,8.511.947,20.431a1.437,1.437,0,0,1-1.36,1.689L31.587,69c-1.652-.045-1.742-.369-1.586-2.053l1.92-19.96-.557-9.448L30.382,41.6c-.25,3.726-2.637,2.572-6.1,2.03-3.3-.933-4.981-.746-4.018-4.223L24,22.008l2.549-3.255ZM41.67,10.121c1.613-.5,3.7-.279,5.345-.342,1.693.009,3.992-.225,5.82.3a2.387,2.387,0,0,1,.951,1.774c0,3.03-7.07,4.6-11.16,2.391-1.935-1.045-2.547-2.713-.956-4.126Z" transform="translate(-19.999 -9.735)" fill-rule="evenodd"/>
    </symbol>
    <symbol viewBox="0 0 56.352 60.365" id="color-teams-white">
        <path id="Path_27107" data-name="Path 27107" d="M27.054,19.238l.331.922c3.762-2.44,8.57-3.611,13.483-4.527a4.932,4.932,0,0,1-.882-.879c-4.684.945-9.236,2.191-12.931,4.484Zm39.807-.263-.308.927c-3.493-2.368-7.957-3.447-12.52-4.27a4.887,4.887,0,0,0,.82-.9c4.349.856,8.575,2.015,12.007,4.238Zm-40.315-.223,5.44-2.834A54.738,54.738,0,0,1,39.541,14a2.812,2.812,0,0,1-.233-1c-1.006.2-2.006.422-2.992.66l3.172-1.653a3.052,3.052,0,0,1,1.359-1.54c-1.077,1.543-.19,3.146,1.6,4.113,4.272,2.308,11.717.7,11.717-2.728a2.433,2.433,0,0,0-.526-1.473,3.536,3.536,0,0,1,1.811,1.841l2.267,1.223q-1.108-.253-2.234-.475a3.03,3.03,0,0,1-.216,1.006,50.625,50.625,0,0,1,6.213,1.5l6.065,3.273,3.791,3.255L74.9,37.541c1.221,3.862.364,3.941-3.734,5.294-4.536,1.5-5.047,1.091-5.961-2.038l-.972-2.319-1.07,8.511.947,20.431a1.437,1.437,0,0,1-1.36,1.689L31.587,69c-1.652-.045-1.742-.369-1.586-2.053l1.92-19.96-.557-9.448L30.382,41.6c-.25,3.726-2.637,2.572-6.1,2.03-3.3-.933-4.981-.746-4.018-4.223L24,22.008l2.549-3.255ZM41.67,10.121c1.613-.5,3.7-.279,5.345-.342,1.693.009,3.992-.225,5.82.3a2.387,2.387,0,0,1,.951,1.774c0,3.03-7.07,4.6-11.16,2.391-1.935-1.045-2.547-2.713-.956-4.126Z" transform="translate(-19.517 -9.245)" fill="#fff" stroke="#ccc" stroke-width="1" fill-rule="evenodd"/>
    </symbol>
    <symbol viewBox="0 0 20.506 20.506" id="icon_close">
        <g id="Group_28713" data-name="Group 28713" transform="translate(2634.326 -4504.624) rotate(45)">
            <rect id="Rectangle_12345" data-name="Rectangle 12345" width="26" height="3" transform="translate(1324 5046.5)" fill="#ccc"/>
            <rect id="Rectangle_12346" data-name="Rectangle 12346" width="26" height="3" transform="translate(1338.5 5035) rotate(90)" fill="#ccc"/>
        </g>
    </symbol>
    <symbol viewBox="0 0 21 21" id="icon_play">
        <g id="Group_29884" data-name="Group 29884" transform="translate(-1411 -2101)">
            <circle id="Ellipse_509" data-name="Ellipse 509" cx="10.5" cy="10.5" r="10.5" transform="translate(1411 2101)" fill=""/>
            <g id="noun-play-1167468" transform="translate(1201.722 1994.211)">
            <path id="Path_28474" data-name="Path 28474" d="M223.107,117l-5.247-3.153a.384.384,0,0,0-.518.106.341.341,0,0,0-.063.189v6.294a.361.361,0,0,0,.379.354.4.4,0,0,0,.2-.059l5.247-3.141a.334.334,0,0,0,.1-.5l-.1-.094Z" transform="translate(0)" fill="#fff"/>
            </g>
        </g>
    </symbol>
    <symbol viewBox="0 0 36.002 36.002" id="icon_pen">
        <g id="Group_25802" data-name="Group 25802" transform="translate(-12589 -3776.998)">
            <g id="Path" transform="translate(12613.258 3776.998)" fill="none" stroke-miterlimit="10">
            <path d="M11.159,8.084a1.992,1.992,0,0,0,0-2.82L6.479.585a1.992,1.992,0,0,0-2.82,0L0,4.245l7.5,7.5Z" stroke="#00000" stroke-width="3"/>
            <path d="M 7.499376773834229 7.501392841339111 L 8.326321601867676 6.674448013305664 L 5.069581508636475 3.417707681655884 L 4.242636680603027 4.24465274810791 L 7.499376773834229 7.501392841339111 M 7.499376773834229 11.74403285980225 L -3.259429831814487e-06 4.24465274810791 L 3.659696817398071 0.5849527716636658 C 4.439637184143066 -0.1949875950813293 5.699526309967041 -0.1949868202209473 6.479466915130615 0.5849527716636658 L 11.15907669067383 5.264562606811523 C 11.93901634216309 6.044502735137939 11.93901634216309 7.30439281463623 11.15907669067383 8.084332466125488 L 7.499376773834229 11.74403285980225 Z" fill="#00000" stroke="#00000" stroke-width="2"/>
            </g>
            <g id="Path-2" data-name="Path" transform="translate(12589 3783.382)" fill="none" stroke-miterlimit="10">
            <path d="M0,22.118v7.5H7.5L33.618,3.5,26.118-4Z" stroke="#00000" stroke-width="3"/>
            <path d="M 6.256741523742676 26.6175537109375 L 29.37491798400879 3.499376773834229 L 26.11817741394043 0.2426356822252274 L 3.000000476837158 23.36081123352051 L 3.000000476837158 26.6175537109375 L 6.256741523742676 26.6175537109375 M 7.499376773834229 29.6175537109375 L 3.848805079087469e-07 29.6175537109375 L 3.848805079087469e-07 22.11817741394043 L 26.11817741394043 -3.999999523162842 L 33.6175537109375 3.499376773834229 L 7.499376773834229 29.6175537109375 Z" stroke="none" fill="#00000"/>
            </g>
        </g>
    </symbol>
    <symbol id="icon-email" viewBox="0 0 29.166 29.166">
        <path id="Path_30087" data-name="Path 30087" d="M200.389,106.4H181.573a5.175,5.175,0,0,0-5.175,5.175v18.816a5.175,5.175,0,0,0,5.175,5.175h18.816a5.175,5.175,0,0,0,5.175-5.175V111.575a5.175,5.175,0,0,0-5.175-5.175Zm-18.816,2.823h18.816a2.352,2.352,0,0,1,2.352,2.352v3.881l-11.76,6.685-11.76-6.685v-3.881a2.352,2.352,0,0,1,2.352-2.352Zm18.816,23.52H181.573a2.352,2.352,0,0,1-2.352-2.352V118.7l10.72,6.115a1.919,1.919,0,0,0,2.074,0l10.725-6.115v11.69a2.352,2.352,0,0,1-2.352,2.352Z" transform="translate(-176.398 -106.4)" fill="#00000"/>
    </symbol>
    <symbol viewBox="0 0 24 24" id="icon_arrow_top">
        <g id="Group_24368" data-name="Group 24368" transform="translate(-1499 681) rotate(-90)">
            <g id="Component_4_1" data-name="Component 4 – 1" transform="translate(657 1499)">
            <circle id="Ellipse_157" data-name="Ellipse 157" cx="12" cy="12" r="12" fill="#6b64c1"/>
            <g id="noun_Arrow_77029" transform="translate(16.8 16.438) rotate(180)">
                <path id="Path_25970" data-name="Path 25970" d="M10.108,5.266H2.362l2.7,2.7a.692.692,0,1,1-.978.978L.2,5.063a.686.686,0,0,1-.046-.051L.14,4.99C.132,4.979.124,4.969.116,4.958S.1,4.938.1,4.929L.082,4.9c-.005-.01-.01-.021-.015-.031s-.01-.02-.014-.03S.045,4.818.041,4.808.033,4.786.03,4.775.024,4.754.022,4.743.016,4.721.013,4.709s0-.025-.006-.037,0-.02,0-.03a.7.7,0,0,1,0-.137c0-.01,0-.02,0-.03s0-.025.006-.037S.019,4.416.022,4.4s0-.021.008-.032.008-.022.012-.033.007-.021.011-.031.009-.02.014-.03.009-.021.015-.031L.1,4.219C.1,4.209.11,4.2.117,4.19L.14,4.158l.017-.023A.686.686,0,0,1,.2,4.084L4.085.2a.692.692,0,0,1,.978.978l-2.7,2.7h7.746a.692.692,0,1,1,0,1.384Z" transform="translate(0 0)" fill="#fff"/>
            </g>
            </g>
        </g>
    </symbol>
    <symbol id="icon-login" viewBox="0 0 24.001 24.851">
        <g transform="translate(-10832.281 23779)">
            <g transform="translate(10832.281 -23779)">
                <g transform="translate(0 0)">
                    <path d="M1.763,13.094,7.431,7.426a1.052,1.052,0,0,0,0-1.465L5.505,4.035Q3.983,2.521,2.462,1l-.7-.7A1.05,1.05,0,0,0,.3.3a1.055,1.055,0,0,0,0,1.465L5.966,7.431V5.966L.3,11.635A1.049,1.049,0,0,0,.3,13.1,1.06,1.06,0,0,0,1.763,13.094Z" transform="translate(14.214 19.119) rotate(180)"/>
                    <path d="M16.487,0H2.931C2.307,0,1.686,0,1.062,0H1.036A1.047,1.047,0,0,0,0,1.039,1.054,1.054,0,0,0,1.036,2.074H14.593c.624,0,1.245.008,1.869,0h.026a1.047,1.047,0,0,0,1.035-1.035A1.05,1.05,0,0,0,16.487,0Z" transform="translate(24.001 13.46) rotate(180)"/>
                    <path d="M128.86,37.745v2.021a2.88,2.88,0,0,1-.013.4c.013-.091.026-.184.036-.274a1.4,1.4,0,0,1-.083.3c.034-.083.07-.166.1-.248a1.4,1.4,0,0,1-.168.3l.163-.21a1.388,1.388,0,0,1-.238.238l.209-.163a1.325,1.325,0,0,1-.3.168l.249-.1a1.546,1.546,0,0,1-.3.083c.091-.013.184-.026.275-.036a4.729,4.729,0,0,1-.575.013H114.462c-.634,0-1.268,0-1.9,0a1.637,1.637,0,0,1-.2-.013c.09.013.184.026.274.036a1.382,1.382,0,0,1-.3-.083l.248.1a1.378,1.378,0,0,1-.295-.168l.209.163a1.368,1.368,0,0,1-.238-.238l.163.21a1.338,1.338,0,0,1-.168-.3c.034.083.07.166.1.248a1.563,1.563,0,0,1-.083-.3c.013.091.026.184.036.274a5.515,5.515,0,0,1-.013-.686V19.791a1.714,1.714,0,0,1,.013-.2c-.013.091-.026.184-.036.274a1.382,1.382,0,0,1,.083-.3c-.034.083-.07.166-.1.248a1.382,1.382,0,0,1,.168-.3l-.163.21a1.365,1.365,0,0,1,.238-.238l-.209.163a1.33,1.33,0,0,1,.295-.168l-.248.1a1.546,1.546,0,0,1,.3-.083c-.091.013-.184.026-.274.036a4.706,4.706,0,0,1,.574-.013H126.7c.634,0,1.268,0,1.9,0a1.643,1.643,0,0,1,.2.013c-.091-.013-.184-.026-.275-.036a1.387,1.387,0,0,1,.3.083l-.249-.1a1.373,1.373,0,0,1,.3.168l-.209-.163a1.392,1.392,0,0,1,.238.238l-.163-.21a1.338,1.338,0,0,1,.168.3c-.034-.083-.07-.166-.1-.248a1.562,1.562,0,0,1,.083.3c-.013-.091-.026-.184-.036-.274a6.761,6.761,0,0,1,.013.859v1.561a1.035,1.035,0,1,0,2.07,0V20.343c0-.191,0-.383,0-.572a2.332,2.332,0,0,0-1.188-2.021,2.785,2.785,0,0,0-1.364-.3H112.914c-.142,0-.287-.005-.432,0a2.335,2.335,0,0,0-1.982,1.216,2.466,2.466,0,0,0-.277,1.123c0,.5,0,1,0,1.5V39.966a2.315,2.315,0,0,0,2.317,2.334c.494.005.991,0,1.488,0H128.4a2.5,2.5,0,0,0,1.457-.365,2.382,2.382,0,0,0,1.072-1.954c0-.212,0-.427,0-.639v-1.6a1.035,1.035,0,0,0-2.07,0Z" transform="translate(-110.221 -17.452)"/>
                </g>
            </g>
        </g>
    </symbol>
    <symbol id="icon-user" viewBox="0 0 33.225 37">
        <g transform="translate(19775.5 23870.5)">
            <path d="M31.225,26.334V22.556A7.556,7.556,0,0,0,23.668,15H8.556A7.556,7.556,0,0,0,1,22.556v3.778" transform="translate(-19775 -23861.334)" fill="none" stroke-linecap="round" stroke-linejoin="round" stroke-width="3"/>
            <circle cx="7.556" cy="7.556" r="7.556" transform="translate(-19766.443 -23869)" fill="none" stroke-linecap="round" stroke-linejoin="round" stroke-width="3"/>
        </g>
    </symbol>

</svg>
