<svg xmlns="http://www.w3.org/2000/svg" xmlns:xlink="http://www.w3.org/1999/xlink" width="750.296" height="351" viewBox="0 0 750.296 351">
  <defs>
    <clipPath id="clip-path">
      <rect x="-11" width="750.296" height="351" fill="none"/>
    </clipPath>
  </defs>
  <g id="Group_31348" data-name="Group 31348" transform="translate(0 -2579)">
    <g id="Scroll_Group_1" data-name="Scroll Group 1" transform="translate(11 2579)" clip-path="url(#clip-path)" style="isolation: isolate">
      <g id="Group_31347" data-name="Group 31347" transform="translate(-11 -2579)">
        <g id="Group_31297" data-name="Group 31297" transform="translate(14 -25)" opacity="0.5">
          <g id="Group_31219" data-name="Group 31219" transform="translate(-142 630)">
            <circle id="Ellipse_520" data-name="Ellipse 520" cx="28.296" cy="28.296" r="28.296" transform="translate(299.705 1974)" fill="#fff"/>
            <circle id="Ellipse_514" data-name="Ellipse 514" cx="51" cy="51" r="51" transform="translate(139 2045.422)" fill="#fff"/>
            <path id="Path_30072" data-name="Path 30072" d="M396.956,496.262H263.168a7.188,7.188,0,0,1-7.17-7.169V423.9a7.188,7.188,0,0,1,7.169-7.17H396.955a7.188,7.188,0,0,1,7.17,7.169v65.189a7.188,7.188,0,0,1-7.169,7.17Z" transform="translate(-76.124 1585.563)" fill="#fff"/>
            <path id="Path_30073" data-name="Path 30073" d="M396.956,496.262H263.168a7.188,7.188,0,0,1-7.17-7.169V423.9a7.188,7.188,0,0,1,7.169-7.17H396.955a7.188,7.188,0,0,1,7.17,7.169v65.189a7.188,7.188,0,0,1-7.169,7.17ZM263.168,418.734A5.185,5.185,0,0,0,258,423.9v65.187a5.185,5.185,0,0,0,5.171,5.17H396.954a5.185,5.185,0,0,0,5.171-5.171V423.9a5.185,5.185,0,0,0-5.171-5.17Z" transform="translate(-76.124 1585.563)" fill="#6b64c1"/>
            <path id="Path_30074" data-name="Path 30074" d="M337.232,486.628c-26.386,0-53.9-.252-64.164-.416a5.176,5.176,0,0,1-5.07-5.155V427.1a1.83,1.83,0,0,1,1.823-1.828H390.3a1.829,1.829,0,0,1,1.827,1.823V463.7a22.842,22.842,0,0,1-22.457,22.752C360.1,486.579,348.771,486.628,337.232,486.628Z" transform="translate(-76.124 1585.563)" fill="#dfdef2"/>
            <path id="Path_30075" data-name="Path 30075" d="M383.146,460.339H274.287a4.439,4.439,0,0,1-4.164-2.936L257.8,422.837a4.423,4.423,0,0,1,4.158-5.907l136.072-.189a4.423,4.423,0,0,1,4.359,5.2l.105.044-.391.912,0,.009-14.895,34.755a4.409,4.409,0,0,1-4.06,2.68Zm14.892-41.6-136.075.189a2.423,2.423,0,0,0-2.278,3.235l12.321,34.565a2.434,2.434,0,0,0,2.282,1.608H383.146a2.413,2.413,0,0,0,2.222-1.467l14.9-34.756.732.314-.732-.314a2.421,2.421,0,0,0-2.226-3.375Z" transform="translate(-76.124 1585.563)" fill="#6b64c1"/>
            <circle id="Ellipse_518" data-name="Ellipse 518" cx="8.524" cy="8.524" r="8.524" transform="translate(245.21 2036.377)" fill="#fff"/>
            <circle id="Ellipse_523" data-name="Ellipse 523" cx="14.148" cy="14.148" r="14.148" transform="translate(328.001 2119.124)" fill="#fff"/>
          </g>
        </g>
        <g id="Group_31218" data-name="Group 31218" transform="translate(-726.704 534)" opacity="0.5">
          <circle id="Ellipse_515" data-name="Ellipse 515" cx="51" cy="51" r="51" transform="translate(1267 2200)" fill="#fff"/>
          <circle id="Ellipse_521" data-name="Ellipse 521" cx="27.5" cy="27.5" r="27.5" transform="translate(1406 2335)" fill="#fff"/>
          <rect id="Rectangle_14592" data-name="Rectangle 14592" width="80" height="161" rx="15" transform="translate(1338 2234)" fill="#fff"/>
          <path id="Path_30069" data-name="Path 30069" d="M683.125,282.421V398.067a9.119,9.119,0,0,1-9.025,9.119.8.8,0,0,1-.1,0h-13.46a40.607,40.607,0,0,1-40.607-40.607V282.421a9.123,9.123,0,0,1,9.123-9.123h5.454c-2.527,7.371,31.765,10.474,33.648,0H674a9.124,9.124,0,0,1,9.124,9.125Z" transform="translate(726.876 1974.141)" fill="#dfdef2"/>
          <path id="Path_30070" data-name="Path 30070" d="M643.182,264.65a1.2,1.2,0,0,1,1.2-1.2h8.13a1.2,1.2,0,1,1,0,2.391h-8.13a1.2,1.2,0,0,1-1.2-1.2Z" transform="translate(726.876 1974.141)" fill="#3f3d56"/>
          <path id="Path_30071" data-name="Path 30071" d="M676.794,421.859H625.378a15.063,15.063,0,0,1-15.046-15.046V325.972a2.187,2.187,0,0,1-.911-1.779v-8.13a2.186,2.186,0,0,1,.911-1.778V312.1a2.186,2.186,0,0,1-.911-1.778v-8.131a2.186,2.186,0,0,1,.911-1.778v-3.944a2.183,2.183,0,0,1-1.15-1.93v-8.13a2.184,2.184,0,0,1,1.15-1.93V273.674a15.063,15.063,0,0,1,15.046-15.046h51.416a15.063,15.063,0,0,1,15.046,15.046V297.23a1.886,1.886,0,0,1,.886,1.6v15.5a1.887,1.887,0,0,1-.886,1.6v90.883A15.063,15.063,0,0,1,676.794,421.859ZM625.378,260.628a13.061,13.061,0,0,0-13.046,13.046v12.508l-.962.037a.2.2,0,0,0-.188.192v8.13a.2.2,0,0,0,.189.192l.962.037v7.049l-.761.188a.2.2,0,0,0-.15.187v8.131a.2.2,0,0,0,.15.187l.761.188v4.991l-.761.188a.2.2,0,0,0-.15.187v8.13a.2.2,0,0,0,.15.187l.761.188v82.246a13.061,13.061,0,0,0,13.046,13.046h51.416a13.061,13.061,0,0,0,13.046-13.046v-92.6h.886V298.942h-.886V273.674a13.061,13.061,0,0,0-13.046-13.046Z" transform="translate(726.876 1974.141)" fill="#6b64c1"/>
          <circle id="Ellipse_517" data-name="Ellipse 517" cx="1.196" cy="1.196" r="1.196" transform="translate(1382.731 2237.596)" fill="#3f3d56"/>
          <circle id="Ellipse_519" data-name="Ellipse 519" cx="8.524" cy="8.524" r="8.524" transform="translate(1370.21 2350.955)" fill="#fff"/>
          <circle id="Ellipse_524" data-name="Ellipse 524" cx="14.148" cy="14.148" r="14.148" transform="translate(1238.704 2362.5)" fill="#fff"/>
        </g>
      </g>
    </g>
  </g>
</svg>
