<svg xmlns="http://www.w3.org/2000/svg" width="549.254" height="343" viewBox="0 0 549.254 343">
  <g id="Group_31427" data-name="Group 31427" transform="translate(-208.746 -5433)">
    <g id="undraw_profile_data_re_v81r" transform="translate(208.746 5433)">
      <path id="Path_30031" data-name="Path 30031" d="M460.116,279.8q-.917,4.735-2.2,9.374c-.093.359-.2.713-.3,1.072H445.728a3.79,3.79,0,0,0-3.819,3.752v33.292c-.36.659-.726,1.313-1.091,1.967-1.888,3.376-3.852,6.715-5.86,10.011A384.1,384.1,0,0,1,302,469.79l3.23-7.16-3.557-.241c-25.779-1.731-51.646-3.65-76.82-9.341-26.336-5.954-52.1-16.282-72.739-33.4s-35.78-41.588-37.881-68.053A76.337,76.337,0,0,1,117,324.573c4.839-16.893,15.413-32.092,30.668-41.085,23.963-14.122,55.22-11.244,80.481.5s45.814,31.181,65.886,50.281a251.988,251.988,0,0,0-82.336-84.42c-11.218-7.053-23.122-13.334-32.659-22.472s-16.565-21.936-14.878-34.911c1.915-14.717,14.186-25.886,26.478-34.5,4.91-3.441,9.979-6.7,15.206-9.706,14.747-8.489,30.7-14.894,47.549-17.268,22.822-3.221,47.473,1.667,64.97,16.416,19.712,16.619,27.8,43.421,27.029,69.061,12.145-17.343,30.875-30.618,52.028-31.181,21.96-.579,42.835,13.05,53.834,31.733S464.224,258.6,460.116,279.8Z" transform="translate(-114.009 -130.052)" fill="#e6e6e6"/>
      <path id="Path_30032" data-name="Path 30032" d="M492.96,409.219c12.862-1.133,24.744-2.456,37.208-5.983,12.081-3.419,23.707-9.141,32.307-18.486,9.251-10.051,14.244-23.1,17.767-36.1,1.964-7.245,3.578-14.59,5.1-21.939q2.479-11.959,4.4-24.025,3.834-24.016,5.474-48.315.2-2.95.363-5.9c.068-1.214-1.82-1.21-1.888,0q-1.348,23.952-4.848,47.717c-2.3,15.566-5.249,31.064-8.987,46.351-3.167,12.95-7.267,26.1-15.389,36.884-7.616,10.109-18.617,16.716-30.495,20.666-12.086,4.019-24.83,5.624-37.46,6.817-1.549.146-2.008.286-3.558.422-1.2.106-1.212,1.995,0,1.888Z" transform="translate(-290.291 -185.545)" fill="#fff"/>
      <path id="Path_30033" data-name="Path 30033" d="M120.732,493.987a204.6,204.6,0,0,1,47.849,8.432,206.783,206.783,0,0,1,44.562,19.4A201.735,201.735,0,0,1,250.67,550.07a206.709,206.709,0,0,1,29.313,34.952,204.656,204.656,0,0,1,20.976,40.665q1,2.625,1.92,5.276c.4,1.14,2.222.649,1.82-.5a206.585,206.585,0,0,0-20.039-41.677,209.279,209.279,0,0,0-28.753-36.223A204.041,204.041,0,0,0,219.2,523.267a208.371,208.371,0,0,0-92.519-30.758q-2.971-.249-5.949-.41c-1.214-.066-1.21,1.822,0,1.888Z" transform="translate(-116.651 -300.692)" fill="#fff"/>
      <path id="Path_30034" data-name="Path 30034" d="M282.719,166.5a112.107,112.107,0,0,1,29.19,13.991A136.259,136.259,0,0,1,336.828,202.2a180.111,180.111,0,0,1,20.634,27.892,236.092,236.092,0,0,1,16.406,32.716,292.022,292.022,0,0,1,11.948,35.584,326.964,326.964,0,0,1,7.64,37.178,325.7,325.7,0,0,1,3.289,37.39,290.546,290.546,0,0,1-1.08,35.867,224.441,224.441,0,0,1-5.49,33.021,153.985,153.985,0,0,1-9.905,28.553q-1.471,3.126-3.122,6.165c-.571,1.051,1.058,1.988,1.63.935a141.134,141.134,0,0,0,11.149-27.522,209.538,209.538,0,0,0,6.648-32.375,276.335,276.335,0,0,0,2.2-35.795,322.218,322.218,0,0,0-2.285-37.614,332.886,332.886,0,0,0-6.651-37.583,302.246,302.246,0,0,0-11.12-36.6,252.3,252.3,0,0,0-15.463-33.684,195,195,0,0,0-19.828-29.353A146.283,146.283,0,0,0,319.2,183.426,117.718,117.718,0,0,0,290.8,167.354q-3.735-1.458-7.574-2.638a.928.928,0,0,0-.5,1.785Z" transform="translate(-192.435 -145.782)" fill="#fff"/>
      <ellipse id="Ellipse_510" data-name="Ellipse 510" cx="135.035" cy="5.456" rx="135.035" ry="5.456" transform="translate(69.287 332.088)" fill="#e6e6e6"/>
      <path id="Path_30035" data-name="Path 30035" d="M677.74,443.057a5.743,5.743,0,0,0-.131.895l-23.437,13.521-5.7-3.28-6.073,7.951,12.187,8.686,26.738-21.094a5.726,5.726,0,1,0-3.588-6.679Z" transform="translate(-359.658 -273.529)" fill="#ffb8b8"/>
      <path id="Path_30036" data-name="Path 30036" d="M606.8,450.957l18.454,13.153,8.254-10.348-17.939-14.395a7.27,7.27,0,0,0-10.469,1.451h0A7.27,7.27,0,0,0,606.8,450.957Z" transform="translate(-341.514 -273.065)" fill="#6c63ff"/>
      <path id="Path_30037" data-name="Path 30037" d="M425.519,586.171l6.471,1.7,9.619-24.15-9.55-2.5Z" transform="translate(-197.564 -261.142)" fill="#ffb8b8"/>
      <path id="Path_30038" data-name="Path 30038" d="M0,0H21.022V8.122H8.122A8.122,8.122,0,0,1,0,0H0Z" transform="matrix(-0.967, -0.253, 0.253, -0.967, 245.333, 336.004)" fill="#2f2e41"/>
      <path id="Path_30039" data-name="Path 30039" d="M527.164,592.8l6.585-1.176-1.4-25.958-9.718,1.736Z" transform="translate(-242.599 -263.167)" fill="#ffb8b8"/>
      <path id="Path_30040" data-name="Path 30040" d="M0,0H21.022V8.122H8.122A8.122,8.122,0,0,1,0,0H0Z" transform="translate(304.776 332.306) rotate(169.872)" fill="#2f2e41"/>
      <path id="Path_30041" data-name="Path 30041" d="M611.606,394.192c1.622.395,2.943,2.048,3.735,3.964a27.662,27.662,0,0,1,1.476,6.228c.623,3.959,1.221,8.245-.067,11.912-1.51,4.3-5.534,6.549-9.024,5.491s-6.266-5.029-7.214-9.6a23.247,23.247,0,0,1,1.6-13.686c.991-2.257,2.358-4.34,4.174-5.358a4.119,4.119,0,0,1,5.493,1.145" transform="translate(-339.709 -252.076)" fill="#2f2e41"/>
      <path id="Path_30042" data-name="Path 30042" d="M592.335,526.948l12.536,112.281-10.354,3.931-19.1-75.292L548.835,636.71l-11.333.63s15.549-107.118,27.073-109.553Z" transform="translate(-311.089 -316.528)" fill="#2f2e41"/>
      <circle id="Ellipse_511" data-name="Ellipse 511" cx="13.4" cy="13.4" r="13.4" transform="translate(257.118 129.873)" fill="#ffb8b8"/>
      <path id="Path_30043" data-name="Path 30043" d="M608.531,430.555l-14.481-1.889s-9.444,11.333-8.815,30.851-1.574,25.5-1.574,25.5l30.194.546C609.49,479.56,627.747,445.091,608.531,430.555Z" transform="translate(-332.223 -269.158)" fill="#6b64c1"/>
      <path id="Path_30044" data-name="Path 30044" d="M616.572,512.936a5.743,5.743,0,0,0-.9.078l-18.526-19.721,1.889-6.3L589.9,482.9l-5.667,13.851,26.654,21.2a5.726,5.726,0,1,0,5.681-5.021Z" transform="translate(-332.532 -294.222)" fill="#ffb8b8"/>
      <path id="Path_30045" data-name="Path 30045" d="M599.166,442.427l-8.58,20.975,11.963,5.667,9.907-20.757a7.27,7.27,0,0,0-3.808-9.86h0A7.27,7.27,0,0,0,599.166,442.427Z" transform="translate(-335.332 -273.179)" fill="#6b64c1"/>
      <path id="Path_30046" data-name="Path 30046" d="M594.431,395.694c2.1-1.211,2.324-4.133,2.038-6.54s-.762-5.091.653-7.059c1.689-2.349,5.082-2.4,7.974-2.473s6.414-.924,7.163-3.718a4.98,4.98,0,0,0-2.084-4.987,14.629,14.629,0,0,0-5.271-2.158c-4.135-1.089-8.405-2.188-12.639-1.589a16.114,16.114,0,0,0-13.729,17.994c.685,5.375,1.679,7.722,1.027,10.091-1.215,4.414-6.455,7.25-6.559,11.827-.082,3.58,3.081,6.342,6.166,8.16a20.7,20.7,0,0,0,7.909,3,10.084,10.084,0,0,0,7.958-2.22c2.71-2.465,3.38-6.585,2.6-10.165s-2.77-6.76-4.742-9.848" transform="translate(-327.323 -240.382)" fill="#2f2e41"/>
      <path id="Path_30047" data-name="Path 30047" d="M911.6,426.948H717.911a4.918,4.918,0,0,0-4.911,4.91v124.4a4.918,4.918,0,0,0,4.911,4.91H911.6a4.918,4.918,0,0,0,4.91-4.91v-124.4A4.918,4.918,0,0,0,911.6,426.948Zm3.819,129.307a3.824,3.824,0,0,1-3.819,3.819H717.911a3.823,3.823,0,0,1-3.819-3.819v-124.4a3.823,3.823,0,0,1,3.819-3.819H911.6a3.823,3.823,0,0,1,3.819,3.819Z" transform="translate(-395.497 -269.58)" fill="#3f3d56"/>
      <path id="Path_30048" data-name="Path 30048" d="M768.468,507.272H737.915a4.643,4.643,0,0,1-4.638-4.638V472.081a4.643,4.643,0,0,1,4.638-4.638h30.553a4.643,4.643,0,0,1,4.638,4.638v30.553A4.643,4.643,0,0,1,768.468,507.272Z" transform="translate(-401.816 -287.009)" fill="#6b64c1"/>
      <path id="Path_30049" data-name="Path 30049" d="M911.057,594.046h-173.5a3.546,3.546,0,1,1,0-7.093h173.5a3.546,3.546,0,0,1,0,7.093Z" transform="translate(-405.045 -342.134)" fill="#ccc"/>
      <path id="Path_30050" data-name="Path 30050" d="M911.276,562.546h-173.5a3.546,3.546,0,0,1,0-7.093h173.5a3.546,3.546,0,1,1,0,7.093Z" transform="translate(-405.144 -327.512)" fill="#ccc"/>
      <path id="Path_30051" data-name="Path 30051" d="M877.417,519.536H851.773a3.546,3.546,0,1,1,0-7.093h25.643a3.546,3.546,0,1,1,0,7.093Z" transform="translate(-455.131 -307.548)" fill="#ccc"/>
      <path id="Path_30052" data-name="Path 30052" d="M963.078,487.546h-111.3a3.546,3.546,0,1,1,0-7.093h111.3a3.546,3.546,0,1,1,0,7.093Z" transform="translate(-456.946 -292.699)" fill="#ccc"/>
      <path id="Path_30053" data-name="Path 30053" d="M821.152,626.046H737.559a3.546,3.546,0,1,1,0-7.093h83.593a3.546,3.546,0,0,1,0,7.093Z" transform="translate(-402.9 -356.987)" fill="#ccc"/>
    </g>
    <g id="Group_31185" data-name="Group 31185" transform="translate(627.396 5506.078)">
      <ellipse id="Ellipse_512" data-name="Ellipse 512" cx="65.5" cy="65" rx="65.5" ry="65" transform="translate(-0.396 -0.078)" fill="#6b64c1"/>
      <path id="Path_30101" data-name="Path 30101" d="M-29.393-13.509v1.881h-1.8v-1.881Zm-1.8,5.282v-2.014h1.8v2.014Zm5.757.076v-5.3h1.311V-11.8A21.141,21.141,0,0,1-24.4-8.151Zm2.47,8.018a.393.393,0,0,1-.285-.095.482.482,0,0,1-.076-.3V-6.137c.038-.171.1-.323.133-.494h2v-1.52h-1.71a25.108,25.108,0,0,0,.228-3.629v-1.672h1.235v-1.52h-6.061v1.52h.722v5.3h-.836v1.52h2.888a11.907,11.907,0,0,1-2.413,4.617A27.876,27.876,0,0,0-28.69-5.852l-1.368.475c.3.627.589,1.349.855,2.052-.684.209-1.349.437-1.995.627V-6.8h3.268v-8.132h-4.731V-6.8c-.38-.475-1.52-1.748-1.976-2.166v-1.463h1.577v-1.6h-1.577v-3.914h-1.634v3.914h-2.223v1.6h2.09a23.221,23.221,0,0,1-2.47,6.992,9,9,0,0,1,.855,1.52,18.747,18.747,0,0,0,1.748-4.237V1.482h1.634V-7.03A19.985,19.985,0,0,1-33.5-5.206l.836-1.368v4.332c-.437.133-.855.266-1.216.361l.684,1.6c1.311-.475,2.907-1.083,4.446-1.691a10.589,10.589,0,0,1,.266,1.045l.532-.209A14.082,14.082,0,0,1-29.811.4a7.739,7.739,0,0,1,1.14,1.083,13.668,13.668,0,0,0,3.914-4.2v2.2c0,.931.057,1.235.342,1.5a1.4,1.4,0,0,0,1.045.342h.855a1.8,1.8,0,0,0,.874-.209A1.326,1.326,0,0,0-21.109.3a19.833,19.833,0,0,0,.152-2.356,4.276,4.276,0,0,1-1.121-.627,17.512,17.512,0,0,1-.057,2.014.882.882,0,0,1-.152.437.461.461,0,0,1-.342.095ZM-7.03-4.275A6.491,6.491,0,0,1-9.215-2.033c-1.311-.323-2.679-.627-4.028-.893.3-.437.627-.893.95-1.349Zm-8.55-6.574h2.489v2.2H-15.58Zm4.18-2.793h2.641v1.368H-11.4Zm7.087,2.793v2.2H-7.087v-2.2Zm-7.087,2.2v-2.2h2.641v2.2Zm10.013,4.37V-5.719h-9.937q.484-.741.912-1.425L-10.7-7.22h8.132v-5.054H-7.087v-1.368h5.225V-15.2H-18.145v1.558h5.054v1.368h-4.142V-7.22h4.845c-.285.475-.627.988-.969,1.5h-5.187v1.444h4.2c-.646.931-1.292,1.8-1.824,2.489l1.691.551.3-.418c.931.209,1.843.4,2.736.627a27.249,27.249,0,0,1-6.8.988A4.5,4.5,0,0,1-17.575,1.5C-13.87,1.216-11.039.684-8.911-.38A53.119,53.119,0,0,1-3.04,1.558L-2,.114C-3.363-.4-5.168-.969-7.163-1.5A8.15,8.15,0,0,0-5.054-4.275ZM7.486-15.314H2.242v1.387H7.486Zm.665,2.565H1.235v1.406H8.151Zm-.665,2.641H2.128V-8.74H7.486ZM2.128-6.156H7.486V-7.524H2.128ZM10.6-10.944h5.643V-7.6H10.6ZM6.08-.741H3.61V-3.477H6.08ZM16-.209c-.342,0-.38-.076-.38-.608V-6.08H18.05V-12.5H16.226c.456-.779.988-1.919,1.482-2.983l-1.824-.494a19.082,19.082,0,0,1-1.235,3.154l1.064.323H11.286l.969-.342a13.262,13.262,0,0,0-1.463-3.021l-1.558.513a14.066,14.066,0,0,1,1.311,2.85H8.892V-6.08h1.881c-.19,2.622-.665,4.9-3.154,6.232V-4.9H2.09V1.482H3.61V.665H7.619V.285A4.546,4.546,0,0,1,8.664,1.6c2.945-1.653,3.61-4.408,3.9-7.676h1.387V-.8c0,1.615.323,2.147,1.767,2.147h1.425c1.254,0,1.672-.76,1.805-3.705a4.475,4.475,0,0,1-1.5-.684C17.4-.589,17.328-.209,16.948-.209ZM26.657-13.224v3.192H23.6v-3.192ZM23.6-5.13V-8.455h3.059V-5.13ZM28.291-3.5V-14.839H21.964V-1.786H23.6V-3.5Zm3.192-2.6c.076-.8.095-1.577.095-2.3v-.627h4.75V-6.1Zm4.845-7.429v2.888h-4.75v-2.888Zm1.748-1.634H29.849v6.745c0,2.907-.323,6.46-3.5,8.835a6.156,6.156,0,0,1,1.311,1.216,9.657,9.657,0,0,0,3.572-6.118h5.092v3.8c0,.323-.133.437-.456.456-.342,0-1.5.019-2.641-.019a6.711,6.711,0,0,1,.646,1.71,9.5,9.5,0,0,0,3.306-.323c.646-.285.893-.817.893-1.805ZM-25.232,17.745h-3.952V16.092h3.952Zm1.6-2.945h-7.087v4.218h7.087Zm-9.424,8.873-.266-1.558-1.539.513V19.379h1.672V17.745h-1.672V14.059h-1.653v3.686h-2v1.634h2v3.838q-1.254.4-2.223.684l.437,1.691c.551-.171,1.159-.4,1.786-.627v4.541c0,.228-.076.285-.285.285-.171,0-.7.019-1.273,0a7.053,7.053,0,0,1,.456,1.577,4.145,4.145,0,0,0,2.128-.342c.475-.247.627-.7.627-1.52V24.357Zm3.971-.817H-31.16V21.032h2.071Zm3.724-1.824H-23.2v1.824h-2.166Zm3.99,5.833V25.421h-5V24.129h4.617V19.778h-5v4.313h-.931V19.778h-4.826v4.351h4.446v1.292h-4.769v1.444h3.838a12.261,12.261,0,0,1-5.13,2.888A9.533,9.533,0,0,1-33,31.121a13.279,13.279,0,0,0,4.94-3.135V31.52h1.691V27.872a12.419,12.419,0,0,0,4.18,3.116,7.181,7.181,0,0,1,1.121-1.368,11.414,11.414,0,0,1-4.408-2.755Zm7.106-12.73a21.134,21.134,0,0,1-4.522,7.334,10.646,10.646,0,0,1,.988,1.824,17.172,17.172,0,0,0,1.558-1.862V31.463h1.786V18.638a30.213,30.213,0,0,0,1.881-3.971Zm13.053,4.731V17.175H-8.854c.361-.8.684-1.634.988-2.451l-1.691-.456a20.188,20.188,0,0,1-4.1,7.22,10.637,10.637,0,0,1,1.368,1.2,19.665,19.665,0,0,0,2.584-3.819h1.064V31.482h1.8V27.074h5.434V25.421H-6.84V22.894h5.168V21.279H-6.84V18.866ZM7.752,22.1c-.722.209-1.444.4-2.147.589V19.4H7.676V17.764H5.6V14.078H3.857v3.686H1.368V19.4H3.857v3.781c-1.045.285-1.995.494-2.755.684l.456,1.71c.7-.19,1.482-.4,2.3-.646v4.6c0,.285-.095.361-.361.361-.228.019-1.007.019-1.805-.019A6.9,6.9,0,0,1,2.2,31.482a6.426,6.426,0,0,0,2.66-.3c.551-.266.741-.741.741-1.653V24.414L7.98,23.73Zm8.284,2.47v1.6H10.45v-1.6ZM10.45,29.2V27.549h5.586V29.2Zm-1.672,2.28H10.45v-.855h5.586v.76h1.748V23.1H8.778Zm3.154-11.343c-1.159,0-1.387-.114-1.387-.779V18.22A38.145,38.145,0,0,0,17.5,16.358l-1.311-1.292a30.368,30.368,0,0,1-5.643,1.729V14.116H8.8V19.36c0,1.862.627,2.375,3,2.375h4.085c1.995,0,2.527-.665,2.755-3.23a5.527,5.527,0,0,1-1.6-.646c-.133,1.938-.285,2.28-1.273,2.28ZM35.169,19.3h-5.89v-.7h5.89Zm0,1.577h-5.89v-.741h5.89Zm0,1.577h-5.89v-.741h5.89Zm-7.543-4.731v5.586H36.9V17.726h-4.37c.1-.247.209-.513.323-.8h5.586V15.693H35.4a12.921,12.921,0,0,0,.95-1.349l-1.653-.323a15.339,15.339,0,0,1-.95,1.672H30.818a7.462,7.462,0,0,0-.988-1.653l-1.425.323a9.118,9.118,0,0,1,.741,1.33h-3v1.235H31.2c-.057.266-.114.551-.19.8Zm-1.9-1.045a12.17,12.17,0,0,0-2.6-2.318l-1.159.969a11.948,11.948,0,0,1,2.527,2.432ZM34.39,25.4c1.444-.019,2.85-.057,3.838-.1A6.276,6.276,0,0,1,38.7,23.92c-2.508.152-7.41.209-9.633.133C27.4,24,26.106,23.54,25.422,22.476v-3.61H21.451v1.349h2.375v2.508a28.431,28.431,0,0,1-2.508,1.387l.646,1.444c1.007-.665,1.938-1.273,2.85-1.881.95,1.14,2.318,1.615,4.275,1.691.912.038,2.223.038,3.61.038v.988H21.375v1.368h4.18l-.969.817a14.029,14.029,0,0,1,2.641,2.242l1.292-1.1a14.33,14.33,0,0,0-2.432-1.957H32.7v1.919c0,.247-.095.3-.4.323-.285.019-1.349.019-2.432-.019a5.13,5.13,0,0,1,.551,1.5,10.319,10.319,0,0,0,3.135-.228c.665-.247.836-.684.836-1.539V27.758h4.1V26.39h-4.1Z" transform="translate(64.604 56.921)" fill="#fff"/>
    </g>
  </g>
</svg>
