<svg xmlns="http://www.w3.org/2000/svg" xmlns:xlink="http://www.w3.org/1999/xlink" width="775.665" height="120.598" viewBox="0 0 775.665 120.598">
  <defs>
    <clipPath id="clip-path">
      <rect x="44" y="44" width="775.665" height="120.598" fill="none"/>
    </clipPath>
    <linearGradient id="linear-gradient" x1="0.5" x2="0.5" y2="1" gradientUnits="objectBoundingBox">
      <stop offset="0" stop-color="#fff"/>
      <stop offset="1" stop-color="#fff"/>
    </linearGradient>
    <filter id="Path_29976" x="-44" y="-44" width="145.815" height="210.598" filterUnits="userSpaceOnUse">
      <feOffset dx="1" dy="1" input="SourceAlpha"/>
      <feGaussianBlur stdDeviation="15" result="blur"/>
      <feFlood flood-opacity="0.102"/>
      <feComposite operator="in" in2="blur"/>
      <feComposite in="SourceGraphic"/>
    </filter>
    <filter id="Path_29977" x="26.049" y="-44" width="147.79" height="210.598" filterUnits="userSpaceOnUse">
      <feOffset dx="1" dy="1" input="SourceAlpha"/>
      <feGaussianBlur stdDeviation="15" result="blur-2"/>
      <feFlood flood-opacity="0.102"/>
      <feComposite operator="in" in2="blur-2"/>
      <feComposite in="SourceGraphic"/>
    </filter>
    <filter id="Path_29978" x="100.21" y="-43.015" width="167.192" height="208.628" filterUnits="userSpaceOnUse">
      <feOffset dx="1" dy="1" input="SourceAlpha"/>
      <feGaussianBlur stdDeviation="15" result="blur-3"/>
      <feFlood flood-opacity="0.102"/>
      <feComposite operator="in" in2="blur-3"/>
      <feComposite in="SourceGraphic"/>
    </filter>
    <filter id="Rectangle_14497" x="195.255" y="-43.015" width="108.326" height="208.628" filterUnits="userSpaceOnUse">
      <feOffset dx="1" dy="1" input="SourceAlpha"/>
      <feGaussianBlur stdDeviation="15" result="blur-4"/>
      <feFlood flood-opacity="0.102"/>
      <feComposite operator="in" in2="blur-4"/>
      <feComposite in="SourceGraphic"/>
    </filter>
    <filter id="Path_29979" x="230.772" y="-43.015" width="150.091" height="208.628" filterUnits="userSpaceOnUse">
      <feOffset dx="1" dy="1" input="SourceAlpha"/>
      <feGaussianBlur stdDeviation="15" result="blur-5"/>
      <feFlood flood-opacity="0.102"/>
      <feComposite operator="in" in2="blur-5"/>
      <feComposite in="SourceGraphic"/>
    </filter>
    <filter id="Path_29980" x="306.575" y="-44" width="147.789" height="210.598" filterUnits="userSpaceOnUse">
      <feOffset dx="1" dy="1" input="SourceAlpha"/>
      <feGaussianBlur stdDeviation="15" result="blur-6"/>
      <feFlood flood-opacity="0.102"/>
      <feComposite operator="in" in2="blur-6"/>
      <feComposite in="SourceGraphic"/>
    </filter>
    <filter id="Path_29981" x="411.157" y="-44" width="149.103" height="210.598" filterUnits="userSpaceOnUse">
      <feOffset dx="1" dy="1" input="SourceAlpha"/>
      <feGaussianBlur stdDeviation="15" result="blur-7"/>
      <feFlood flood-opacity="0.102"/>
      <feComposite operator="in" in2="blur-7"/>
      <feComposite in="SourceGraphic"/>
    </filter>
    <filter id="Path_29982" x="483.342" y="-44" width="147.787" height="210.598" filterUnits="userSpaceOnUse">
      <feOffset dx="1" dy="1" input="SourceAlpha"/>
      <feGaussianBlur stdDeviation="15" result="blur-8"/>
      <feFlood flood-opacity="0.102"/>
      <feComposite operator="in" in2="blur-8"/>
      <feComposite in="SourceGraphic"/>
    </filter>
    <filter id="Path_29983" x="556.517" y="-44" width="147.787" height="210.598" filterUnits="userSpaceOnUse">
      <feOffset dx="1" dy="1" input="SourceAlpha"/>
      <feGaussianBlur stdDeviation="15" result="blur-9"/>
      <feFlood flood-opacity="0.102"/>
      <feComposite operator="in" in2="blur-9"/>
      <feComposite in="SourceGraphic"/>
    </filter>
    <filter id="Path_29984" x="630.018" y="-43.015" width="150.091" height="208.628" filterUnits="userSpaceOnUse">
      <feOffset dx="1" dy="1" input="SourceAlpha"/>
      <feGaussianBlur stdDeviation="15" result="blur-10"/>
      <feFlood flood-opacity="0.102"/>
      <feComposite operator="in" in2="blur-10"/>
      <feComposite in="SourceGraphic"/>
    </filter>
    <filter id="Path_29985" x="708.18" y="-43.015" width="112.485" height="208.628" filterUnits="userSpaceOnUse">
      <feOffset dx="1" dy="1" input="SourceAlpha"/>
      <feGaussianBlur stdDeviation="15" result="blur-11"/>
      <feFlood flood-opacity="0.102"/>
      <feComposite operator="in" in2="blur-11"/>
      <feComposite in="SourceGraphic"/>
    </filter>
  </defs>
  <g id="Scroll_Group_3" data-name="Scroll Group 3" transform="translate(-44 -44)" clip-path="url(#clip-path)" style="isolation: isolate">
    <g id="Group_31012" data-name="Group 31012" transform="translate(140.097 -1510.336)">
      <g id="Group_31011" data-name="Group 31011" transform="translate(-96.097 1554.336)">
        <g id="未来の日本のために_2" data-name="未来の日本のために 2" style="isolation: isolate">
          <g id="Group_31010" data-name="Group 31010" style="isolation: isolate">
            <g id="Group_31009" data-name="Group 31009">
              <g transform="matrix(1, 0, 0, 1, 0, 0)" filter="url(#Path_29976)">
                <path id="Path_29976-2" data-name="Path 29976" d="M-67.7,1674.934c-8.54,0-28.4-2.768-28.4-28.4v-64.458c0-16.074,11.807-27.74,28.072-27.74,16.076,0,27.743,12.082,27.743,28.729v5.8a1.554,1.554,0,0,1-1.554,1.554H-57.053a1.554,1.554,0,0,1-1.554-1.554v-4.814c0-5.661-3.291-11.393-9.583-11.393-6.806,0-9.583,3.73-9.583,12.874v59.851c0,7.556,3.08,11.228,9.418,11.228,2.286,0,9.747-.8,9.747-11.065v-4.976a1.554,1.554,0,0,1,1.554-1.554h15.217a1.554,1.554,0,0,1,1.554,1.554v6.457C-40.281,1662.415-52.579,1674.934-67.7,1674.934Z" transform="translate(96.1 -1554.34)" fill="url(#linear-gradient)"/>
              </g>
              <g transform="matrix(1, 0, 0, 1, 0, 0)" filter="url(#Path_29977)">
                <path id="Path_29977-2" data-name="Path 29977" d="M-16.082,1674.934c-14.359,0-28.9-10.094-28.9-29.388v-61.824c0-19.293,14.536-29.386,28.9-29.386s28.894,10.094,28.894,29.386v61.824C12.812,1664.841-1.724,1674.934-16.082,1674.934Zm0-102.276c-5.11,0-10.569,2.906-10.569,11.064v61.824c0,8.159,5.459,11.065,10.569,11.065s10.568-2.906,10.568-11.065v-61.824C-5.514,1575.565-10.974,1572.658-16.082,1572.658Z" transform="translate(115.03 -1554.34)" fill="url(#linear-gradient)"/>
              </g>
              <g transform="matrix(1, 0, 0, 1, 0, 0)" filter="url(#Path_29978)">
                <path id="Path_29978-2" data-name="Path 29978" d="M69.562,1673.683a1.553,1.553,0,0,1-1.553-1.554v-61.754a.776.776,0,0,0-.654-.769,1,1,0,0,0-.125-.01.776.776,0,0,0-.737.534l-13.731,41.6a1.555,1.555,0,0,1-1.476,1.068H44.026a1.556,1.556,0,0,1-1.477-1.07l-13.565-41.512a.775.775,0,0,0-.739-.537.8.8,0,0,0-.777.777v61.672a1.555,1.555,0,0,1-1.554,1.554H10.7a1.555,1.555,0,0,1-1.554-1.554V1556.608a1.554,1.554,0,0,1,1.554-1.552H25.48a1.552,1.552,0,0,1,1.468,1.043L47,1613.8a.776.776,0,0,0,1.468,0l19.9-57.7a1.553,1.553,0,0,1,1.469-1.046H84.78a1.554,1.554,0,0,1,1.554,1.552v115.521a1.555,1.555,0,0,1-1.554,1.554Z" transform="translate(135.07 -1554.07)" fill="url(#linear-gradient)"/>
              </g>
              <g transform="matrix(1, 0, 0, 1, 0, 0)" filter="url(#Rectangle_14497)">
                <rect id="Rectangle_14497-2" data-name="Rectangle 14497" width="18.326" height="118.628" rx="1.134" transform="translate(239.25 0.98)" fill="url(#linear-gradient)"/>
              </g>
              <g transform="matrix(1, 0, 0, 1, 0, 0)" filter="url(#Path_29979)">
                <path id="Path_29979-2" data-name="Path 29979" d="M148.493,1673.683a1.554,1.554,0,0,1-1.459-1.021l-22.779-62.5a.781.781,0,0,0-.729-.512.765.765,0,0,0-.137.012.776.776,0,0,0-.641.766v61.7a1.555,1.555,0,0,1-1.554,1.554H105.975a1.555,1.555,0,0,1-1.554-1.554V1556.608a1.554,1.554,0,0,1,1.554-1.552h14.791a1.554,1.554,0,0,1,1.462,1.029l22.451,62.54a.779.779,0,0,0,.73.515,1,1,0,0,0,.141-.012.773.773,0,0,0,.636-.765v-61.755a1.554,1.554,0,0,1,1.554-1.552h15.219a1.553,1.553,0,0,1,1.553,1.552v115.521a1.553,1.553,0,0,1-1.553,1.554Z" transform="translate(170.35 -1554.07)" fill="url(#linear-gradient)"/>
              </g>
              <g transform="matrix(1, 0, 0, 1, 0, 0)" filter="url(#Path_29980)">
                <path id="Path_29980-2" data-name="Path 29980" d="M188.635,1674.934c-14.359,0-28.9-10.094-28.9-29.388v-61.824c0-19.293,14.536-29.386,28.9-29.386s28.893,10.094,28.893,29.386v5.143a1.554,1.554,0,0,1-1.554,1.554H200.757a1.554,1.554,0,0,1-1.554-1.554v-5.143c0-8.157-5.459-11.064-10.568-11.064s-10.569,2.906-10.569,11.064v61.824c0,8.159,5.459,11.065,10.569,11.065s10.568-2.906,10.568-11.065v-20.478a.778.778,0,0,0-.777-.777H187.438a1.554,1.554,0,0,1-1.554-1.554v-13.246a1.555,1.555,0,0,1,1.554-1.554h28.535a1.555,1.555,0,0,1,1.554,1.554v36.054C217.528,1664.841,202.993,1674.934,188.635,1674.934Z" transform="translate(190.84 -1554.34)" fill="url(#linear-gradient)"/>
              </g>
              <g transform="matrix(1, 0, 0, 1, 0, 0)" filter="url(#Path_29981)">
                <path id="Path_29981-2" data-name="Path 29981" d="M265.445,1674.934c-16.753,0-29.386-12.281-29.386-28.565V1640.9a1.553,1.553,0,0,1,1.553-1.554H252.83a1.554,1.554,0,0,1,1.554,1.554v4.484c0,2.634.8,11.228,11.061,11.228,9.807,0,11.39-4.91,11.39-16.656,0-11.729-1.118-13.8-9.213-17.036l-12.009-4.936c-15.548-6.361-18.734-16.918-18.734-30.809,0-19.95,11.6-32.839,29.552-32.839,17.746,0,28.73,14.143,28.73,27.249v7.443a1.553,1.553,0,0,1-1.553,1.554h-15.22a1.554,1.554,0,0,1-1.554-1.554v-3c0-8.493-4.03-13.366-11.06-13.366-7.113,0-10.571,4.7-10.571,14.354,0,9.023.889,11.666,9.047,14.9l12.826,5.1c15.283,5.776,18.084,15.575,18.084,32.786C295.162,1663.111,285.164,1674.934,265.445,1674.934Z" transform="translate(219.1 -1554.34)" fill="url(#linear-gradient)"/>
              </g>
              <g transform="matrix(1, 0, 0, 1, 0, 0)" filter="url(#Path_29982)">
                <path id="Path_29982-2" data-name="Path 29982" d="M317.63,1674.934c-14.357,0-28.893-10.094-28.893-29.388v-61.824c0-19.293,14.536-29.386,28.893-29.386s28.894,10.094,28.894,29.386v61.824C346.524,1664.841,331.99,1674.934,317.63,1674.934Zm0-102.276c-5.109,0-10.569,2.906-10.569,11.064v61.824c0,8.159,5.461,11.065,10.569,11.065s10.571-2.906,10.571-11.065v-61.824C328.2,1575.565,322.741,1572.658,317.63,1572.658Z" transform="translate(238.61 -1554.34)" fill="url(#linear-gradient)"/>
              </g>
              <g transform="matrix(1, 0, 0, 1, 0, 0)" filter="url(#Path_29983)">
                <path id="Path_29983-2" data-name="Path 29983" d="M371.03,1674.934c-14.358,0-28.893-10.094-28.893-29.388v-61.824c0-19.293,14.535-29.386,28.893-29.386s28.894,10.094,28.894,29.386v61.824C399.924,1664.841,385.388,1674.934,371.03,1674.934Zm0-102.276c-5.11,0-10.569,2.906-10.569,11.064v61.824c0,8.159,5.459,11.065,10.569,11.065s10.571-2.906,10.571-11.065v-61.824C381.6,1575.565,376.14,1572.658,371.03,1572.658Z" transform="translate(258.38 -1554.34)" fill="url(#linear-gradient)"/>
              </g>
              <g transform="matrix(1, 0, 0, 1, 0, 0)" filter="url(#Path_29984)">
                <path id="Path_29984-2" data-name="Path 29984" d="M439.847,1673.683a1.554,1.554,0,0,1-1.459-1.021l-22.78-62.5a.779.779,0,0,0-.728-.514.765.765,0,0,0-.137.012.777.777,0,0,0-.643.766v61.7a1.553,1.553,0,0,1-1.553,1.554H397.329a1.555,1.555,0,0,1-1.554-1.554V1556.608a1.554,1.554,0,0,1,1.554-1.552H412.12a1.555,1.555,0,0,1,1.463,1.029l22.45,62.54a.776.776,0,0,0,.73.515,1.019,1.019,0,0,0,.142-.012.773.773,0,0,0,.636-.765v-61.755a1.554,1.554,0,0,1,1.554-1.552h15.216a1.554,1.554,0,0,1,1.554,1.552v115.521a1.555,1.555,0,0,1-1.554,1.554Z" transform="translate(278.24 -1554.07)" fill="url(#linear-gradient)"/>
              </g>
              <g transform="matrix(1, 0, 0, 1, 0, 0)" filter="url(#Path_29985)">
                <path id="Path_29985-2" data-name="Path 29985" d="M456.449,1673.683a1.555,1.555,0,0,1-1.554-1.554v-15.217a1.555,1.555,0,0,1,1.554-1.554h15.217a1.555,1.555,0,0,1,1.554,1.554v15.217a1.555,1.555,0,0,1-1.554,1.554Zm4.221-28.94a1.553,1.553,0,0,1-1.55-1.442l-6.3-86.58a1.553,1.553,0,0,1,1.55-1.666h19.378a1.553,1.553,0,0,1,1.55,1.666L469,1643.3a1.553,1.553,0,0,1-1.55,1.442Z" transform="translate(299.37 -1554.07)" fill="url(#linear-gradient)"/>
              </g>
            </g>
          </g>
        </g>
      </g>
    </g>
  </g>
</svg>
