<svg xmlns="http://www.w3.org/2000/svg" width="227.984" height="14.864" viewBox="0 0 227.984 14.864">
  <path id="Path_30020" data-name="Path 30020" d="M-220.88-4.592a1.783,1.783,0,0,1-1.776,1.44,2.416,2.416,0,0,1-2.272-2.576,2.284,2.284,0,0,1,2.24-2.528A1.828,1.828,0,0,1-220.88-6.9h1.056a2.739,2.739,0,0,0-2.88-2.416A3.308,3.308,0,0,0-226.08-5.7a3.384,3.384,0,0,0,3.424,3.6,2.89,2.89,0,0,0,2.832-2.5Zm2.656-1.1a4.7,4.7,0,0,1-4.64,4.736A4.7,4.7,0,0,1-227.5-5.7a4.7,4.7,0,0,1,4.64-4.736A4.7,4.7,0,0,1-218.224-5.7Zm-10.432,0A5.791,5.791,0,0,0-222.864.1,5.791,5.791,0,0,0-217.072-5.7a5.791,5.791,0,0,0-5.792-5.792A5.791,5.791,0,0,0-228.656-5.7Zm19.84-3.216a2.669,2.669,0,0,0-2.72-2.576c-1.872,0-2.8,1.392-2.8,3.12A2.687,2.687,0,0,0-212.56-5.44l1.168.48c.8.32.944.512.944,1.728,0,1.04-.08,1.7-1.184,1.7A1.076,1.076,0,0,1-212.784-2.7v-.512h-1.632v.608A2.69,2.69,0,0,0-211.632.1c2.112,0,2.816-1.424,2.816-3.344,0-1.664-.272-2.576-1.712-3.12l-1.248-.5c-.848-.336-.928-.64-.928-1.52,0-.752.208-1.472,1.1-1.472.832,0,1.152.624,1.152,1.376v.368h1.632Zm2.72,6.224A2.672,2.672,0,0,0-203.36.1a2.672,2.672,0,0,0,2.736-2.784V-8.7a2.672,2.672,0,0,0-2.736-2.784A2.672,2.672,0,0,0-206.1-8.7Zm1.632-6.016a1.054,1.054,0,0,1,1.1-1.152,1.054,1.054,0,0,1,1.1,1.152v6.016a1.054,1.054,0,0,1-1.1,1.152,1.054,1.054,0,0,1-1.1-1.152ZM-192.4-3.248h-1.632v.56a1.008,1.008,0,0,1-1.024,1.152c-.736,0-.992-.512-.992-1.168V-8.528c0-.768.192-1.328,1.008-1.328a1.071,1.071,0,0,1,1.008,1.184v.544h1.632v-.64a2.59,2.59,0,0,0-2.624-2.72,2.546,2.546,0,0,0-2.656,2.624v6.272A2.47,2.47,0,0,0-194.992.1a2.632,2.632,0,0,0,2.592-2.64Zm8.112,0h-1.632v.56a1.008,1.008,0,0,1-1.024,1.152c-.736,0-.992-.512-.992-1.168V-8.528c0-.768.192-1.328,1.008-1.328a1.071,1.071,0,0,1,1.008,1.184v.544h1.632v-.64a2.59,2.59,0,0,0-2.624-2.72,2.546,2.546,0,0,0-2.656,2.624v6.272A2.47,2.47,0,0,0-186.88.1a2.632,2.632,0,0,0,2.592-2.64ZM-181.36,0h4.864V-1.632h-3.232V-4.976h2.816V-6.512h-2.816V-9.856h3.232v-1.536h-4.864Zm9.152-9.856h.848c1.2,0,1.392.624,1.392,1.776,0,1.136-.176,1.776-1.312,1.776h-.928ZM-173.84,0h1.632V-4.864h.976L-169.712,0h1.728l-1.76-5.2a2.9,2.9,0,0,0,1.408-2.848c0-2.208-.944-3.344-2.88-3.344h-2.624Zm12.992,0h1.632V-4.448h.832a2.517,2.517,0,0,0,2.368-1.184,4.094,4.094,0,0,0,.464-2.288,3.5,3.5,0,0,0-.736-2.672,2.651,2.651,0,0,0-2.112-.8h-2.448Zm1.632-9.856h.848c1.28,0,1.28.88,1.28,1.952,0,1.136-.016,1.92-1.344,1.92h-.784ZM-152.736,0h4.864V-1.632H-151.1v-9.76h-1.632Zm12.8-11.392h-1.632V-2.72c0,.8-.432,1.184-1.008,1.184s-1.008-.384-1.008-1.184v-8.672h-1.632V-2.56A2.636,2.636,0,0,0-142.576.1a2.636,2.636,0,0,0,2.64-2.656Zm8.416,2.48a2.669,2.669,0,0,0-2.72-2.576c-1.872,0-2.8,1.392-2.8,3.12a2.687,2.687,0,0,0,1.776,2.928l1.168.48c.8.32.944.512.944,1.728,0,1.04-.08,1.7-1.184,1.7A1.076,1.076,0,0,1-135.488-2.7v-.512h-1.632v.608A2.69,2.69,0,0,0-134.336.1c2.112,0,2.816-1.424,2.816-3.344,0-1.664-.272-2.576-1.712-3.12l-1.248-.5c-.848-.336-.928-.64-.928-1.52,0-.752.208-1.472,1.1-1.472.832,0,1.152.624,1.152,1.376v.368h1.632Zm10.688,4.928h-1.632l.8-4.128h.032ZM-124.864,0h1.632l.48-2.448h2.224l.48,2.448h1.632l-2.544-11.392h-1.36Zm8.656-2.176c0,1.888.928,2.272,2.432,2.272V-1.44c-.624-.064-.8-.24-.8-.848v-9.1h-1.632Zm4.576,0C-111.632-.288-110.7.1-109.2.1V-1.44c-.624-.064-.8-.24-.8-.848v-9.1h-1.632ZM-102.384,0h1.632V-4.816a1.628,1.628,0,0,1,1.664-1.76,1.3,1.3,0,0,1,.5.1V-8.208a2.981,2.981,0,0,0-2.16.96v-.864h-1.632Zm6.048,0H-94.7V-8.112h-1.632Zm0-9.76H-94.7v-1.632h-1.632ZM-91.76.944a2.421,2.421,0,0,0,2.432,2.432A2.31,2.31,0,0,0-86.88.992v-9.1h-1.632v.736a1.828,1.828,0,0,0-1.536-.832,1.537,1.537,0,0,0-1.456.736A3.876,3.876,0,0,0-91.76-5.5v3.088a3.676,3.676,0,0,0,.272,1.744A1.483,1.483,0,0,0-90.064.1a1.757,1.757,0,0,0,1.52-.832h.032v1.6c0,.512-.224.88-.752.88a.828.828,0,0,1-.864-.8Zm1.632-6.416c0-.656.24-1.1.8-1.1.5,0,.816.416.816,1.008v3.152a.826.826,0,0,1-.816.88c-.624,0-.8-.448-.8-.96ZM-83.936,0H-82.3V-5.456c0-.72.208-1.12.816-1.12.512,0,.8.368.8.96V0h1.632V-6.224c0-1.456-.864-1.984-1.68-1.984a1.724,1.724,0,0,0-1.536.88H-82.3v-4.064h-1.632Zm7.824-8.112h-.816v1.28h.816V-1.9A1.813,1.813,0,0,0-74.144,0h.672V-1.536c-.72,0-1.008-.048-1.008-.8v-4.5h1.008v-1.28H-74.48v-2.464h-1.632Zm9.36,2.272a2.29,2.29,0,0,0-2.3-2.368,2.35,2.35,0,0,0-2.4,2.368A2.308,2.308,0,0,0-69.808-3.6l.784.288c.624.24.816.544.816.992a.884.884,0,0,1-.912.88c-.608,0-.816-.464-.88-.912h-1.536A2.362,2.362,0,0,0-69.1.1a2.4,2.4,0,0,0,2.432-2.448,2.259,2.259,0,0,0-1.6-2.288l-.96-.384c-.608-.24-.688-.528-.688-.832a.785.785,0,0,1,.8-.816.806.806,0,0,1,.832.832ZM-59.44,0h1.632V-4.816a1.628,1.628,0,0,1,1.664-1.76,1.3,1.3,0,0,1,.5.1V-8.208a2.981,2.981,0,0,0-2.16.96v-.864H-59.44Zm10.768-3.44V-5.68A2.369,2.369,0,0,0-51.1-8.208,2.323,2.323,0,0,0-53.232-7.04a3.571,3.571,0,0,0-.3,1.648V-2.72a3.571,3.571,0,0,0,.3,1.648A2.323,2.323,0,0,0-51.1.1a2.382,2.382,0,0,0,1.776-.72,2.489,2.489,0,0,0,.656-1.728H-50.3c-.032.352-.176.816-.8.816a.732.732,0,0,1-.8-.8v-1.1ZM-51.9-5.648c0-.608.3-.928.8-.928s.8.32.8.928v.928h-1.6Zm10.528-.192a2.29,2.29,0,0,0-2.3-2.368,2.35,2.35,0,0,0-2.4,2.368A2.308,2.308,0,0,0-44.432-3.6l.784.288c.624.24.816.544.816.992a.884.884,0,0,1-.912.88c-.608,0-.816-.464-.88-.912H-46.16A2.362,2.362,0,0,0-43.728.1,2.4,2.4,0,0,0-41.3-2.352,2.259,2.259,0,0,0-42.9-4.64l-.96-.384c-.608-.24-.688-.528-.688-.832a.785.785,0,0,1,.8-.816.806.806,0,0,1,.832.832Zm7.456,2.4V-5.68a2.369,2.369,0,0,0-2.432-2.528A2.323,2.323,0,0,0-38.48-7.04a3.571,3.571,0,0,0-.3,1.648V-2.72a3.571,3.571,0,0,0,.3,1.648A2.323,2.323,0,0,0-36.352.1a2.382,2.382,0,0,0,1.776-.72,2.489,2.489,0,0,0,.656-1.728h-1.632c-.032.352-.176.816-.8.816a.732.732,0,0,1-.8-.8v-1.1Zm-3.232-2.208c0-.608.3-.928.8-.928s.8.32.8.928v.928h-1.6ZM-31.12,0h1.632V-4.816a1.628,1.628,0,0,1,1.664-1.76,1.3,1.3,0,0,1,.5.1V-8.208a2.981,2.981,0,0,0-2.16.96v-.864H-31.12Zm11.312-8.112h-1.728l-1.088,5.184h-.032l-1.088-5.184h-1.728L-23.36,0h1.44Zm6.88,4.672V-5.68A2.369,2.369,0,0,0-15.36-8.208,2.323,2.323,0,0,0-17.488-7.04a3.571,3.571,0,0,0-.3,1.648V-2.72a3.571,3.571,0,0,0,.3,1.648A2.323,2.323,0,0,0-15.36.1a2.382,2.382,0,0,0,1.776-.72,2.489,2.489,0,0,0,.656-1.728H-14.56c-.032.352-.176.816-.8.816a.732.732,0,0,1-.8-.8v-1.1ZM-16.16-5.648c0-.608.3-.928.8-.928s.8.32.8.928v.928h-1.6Zm7.664.032c0-.512.176-.96.8-.96a.826.826,0,0,1,.816.88v3.152c0,.592-.32,1.008-.816,1.008-.56,0-.8-.448-.8-1.1ZM-6.88,0h1.632V-11.392H-6.88v4.016h-.032a1.75,1.75,0,0,0-1.5-.832,1.537,1.537,0,0,0-1.456.736A3.876,3.876,0,0,0-10.128-5.5v3.088A3.676,3.676,0,0,0-9.856-.672,1.483,1.483,0,0,0-8.432.1,1.836,1.836,0,0,0-6.88-.736ZM-2.3,0H-.672V-1.632H-2.3Z" transform="translate(228.656 11.488)" fill="#fff"/>
</svg>
