<svg xmlns="http://www.w3.org/2000/svg" xmlns:xlink="http://www.w3.org/1999/xlink" width="500" height="48.361" viewBox="0 0 500 48.361">
  <defs>
    <clipPath id="clip-path">
      <rect x="44" y="44" width="500" height="48.361" fill="none"/>
    </clipPath>
    <filter id="Path_29992" x="-44" y="-44" width="109.76" height="136.67" filterUnits="userSpaceOnUse">
      <feOffset dx="1" dy="1" input="SourceAlpha"/>
      <feGaussianBlur stdDeviation="15" result="blur"/>
      <feFlood flood-opacity="0.102"/>
      <feComposite operator="in" in2="blur"/>
      <feComposite in="SourceGraphic"/>
    </filter>
    <filter id="Path_29993" x="-19.822" y="-44" width="109.76" height="137.059" filterUnits="userSpaceOnUse">
      <feOffset dx="1" dy="1" input="SourceAlpha"/>
      <feGaussianBlur stdDeviation="15" result="blur-2"/>
      <feFlood flood-opacity="0.102"/>
      <feComposite operator="in" in2="blur-2"/>
      <feComposite in="SourceGraphic"/>
    </filter>
    <filter id="Path_29994" x="4.357" y="-44" width="109.759" height="136.67" filterUnits="userSpaceOnUse">
      <feOffset dx="1" dy="1" input="SourceAlpha"/>
      <feGaussianBlur stdDeviation="15" result="blur-3"/>
      <feFlood flood-opacity="0.102"/>
      <feComposite operator="in" in2="blur-3"/>
      <feComposite in="SourceGraphic"/>
    </filter>
    <filter id="Path_29995" x="28.535" y="-44" width="109.759" height="136.67" filterUnits="userSpaceOnUse">
      <feOffset dx="1" dy="1" input="SourceAlpha"/>
      <feGaussianBlur stdDeviation="15" result="blur-4"/>
      <feFlood flood-opacity="0.102"/>
      <feComposite operator="in" in2="blur-4"/>
      <feComposite in="SourceGraphic"/>
    </filter>
    <filter id="Path_29996" x="57.882" y="-34.863" width="128.183" height="129.015" filterUnits="userSpaceOnUse">
      <feOffset dx="1" dy="1" input="SourceAlpha"/>
      <feGaussianBlur stdDeviation="15" result="blur-5"/>
      <feFlood flood-opacity="0.102"/>
      <feComposite operator="in" in2="blur-5"/>
      <feComposite in="SourceGraphic"/>
    </filter>
    <filter id="Path_29997" x="102.56" y="-43.61" width="103.26" height="136.279" filterUnits="userSpaceOnUse">
      <feOffset dx="1" dy="1" input="SourceAlpha"/>
      <feGaussianBlur stdDeviation="15" result="blur-6"/>
      <feFlood flood-opacity="0.102"/>
      <feComposite operator="in" in2="blur-6"/>
      <feComposite in="SourceGraphic"/>
    </filter>
    <filter id="Path_29998" x="125.503" y="-44" width="109.759" height="137.059" filterUnits="userSpaceOnUse">
      <feOffset dx="1" dy="1" input="SourceAlpha"/>
      <feGaussianBlur stdDeviation="15" result="blur-7"/>
      <feFlood flood-opacity="0.102"/>
      <feComposite operator="in" in2="blur-7"/>
      <feComposite in="SourceGraphic"/>
    </filter>
    <filter id="Path_29999" x="152.628" y="-32.782" width="123.899" height="126.893" filterUnits="userSpaceOnUse">
      <feOffset dx="1" dy="1" input="SourceAlpha"/>
      <feGaussianBlur stdDeviation="15" result="blur-8"/>
      <feFlood flood-opacity="0.102"/>
      <feComposite operator="in" in2="blur-8"/>
      <feComposite in="SourceGraphic"/>
    </filter>
    <filter id="Path_30000" x="199.335" y="-44" width="109.76" height="136.67" filterUnits="userSpaceOnUse">
      <feOffset dx="1" dy="1" input="SourceAlpha"/>
      <feGaussianBlur stdDeviation="15" result="blur-9"/>
      <feFlood flood-opacity="0.102"/>
      <feComposite operator="in" in2="blur-9"/>
      <feComposite in="SourceGraphic"/>
    </filter>
    <filter id="Path_30001" x="221.889" y="-43.61" width="113.008" height="136.279" filterUnits="userSpaceOnUse">
      <feOffset dx="1" dy="1" input="SourceAlpha"/>
      <feGaussianBlur stdDeviation="15" result="blur-10"/>
      <feFlood flood-opacity="0.102"/>
      <feComposite operator="in" in2="blur-10"/>
      <feComposite in="SourceGraphic"/>
    </filter>
    <filter id="Path_30002" x="256.085" y="-32.242" width="118.909" height="125.854" filterUnits="userSpaceOnUse">
      <feOffset dx="1" dy="1" input="SourceAlpha"/>
      <feGaussianBlur stdDeviation="15" result="blur-11"/>
      <feFlood flood-opacity="0.102"/>
      <feComposite operator="in" in2="blur-11"/>
      <feComposite in="SourceGraphic"/>
    </filter>
    <filter id="Path_30003" x="293.191" y="-33.823" width="127.933" height="128.142" filterUnits="userSpaceOnUse">
      <feOffset dx="1" dy="1" input="SourceAlpha"/>
      <feGaussianBlur stdDeviation="15" result="blur-12"/>
      <feFlood flood-opacity="0.102"/>
      <feComposite operator="in" in2="blur-12"/>
      <feComposite in="SourceGraphic"/>
    </filter>
    <filter id="Path_30004" x="336.203" y="-33.156" width="125.064" height="127.267" filterUnits="userSpaceOnUse">
      <feOffset dx="1" dy="1" input="SourceAlpha"/>
      <feGaussianBlur stdDeviation="15" result="blur-13"/>
      <feFlood flood-opacity="0.102"/>
      <feComposite operator="in" in2="blur-13"/>
      <feComposite in="SourceGraphic"/>
    </filter>
    <filter id="Path_30005" x="376.469" y="-32.7" width="128.017" height="126.728" filterUnits="userSpaceOnUse">
      <feOffset dx="1" dy="1" input="SourceAlpha"/>
      <feGaussianBlur stdDeviation="15" result="blur-14"/>
      <feFlood flood-opacity="0.102"/>
      <feComposite operator="in" in2="blur-14"/>
      <feComposite in="SourceGraphic"/>
    </filter>
    <filter id="Path_30006" x="417.068" y="-34.697" width="128.932" height="129.057" filterUnits="userSpaceOnUse">
      <feOffset dx="1" dy="1" input="SourceAlpha"/>
      <feGaussianBlur stdDeviation="15" result="blur-15"/>
      <feFlood flood-opacity="0.102"/>
      <feComposite operator="in" in2="blur-15"/>
      <feComposite in="SourceGraphic"/>
    </filter>
  </defs>
  <g id="Scroll_Group_2" data-name="Scroll Group 2" transform="translate(-44 -44)" clip-path="url(#clip-path)" style="isolation: isolate">
    <g id="Group_31030" data-name="Group 31030" transform="translate(375.138 -1727.927)">
      <g id="Group_31030-2" data-name="Group 31030" transform="translate(-331.138 1771.927)" style="isolation: isolate">
        <g transform="matrix(1, 0, 0, 1, 0, 0)" filter="url(#Path_29992)">
          <path id="Path_29992-2" data-name="Path 29992" d="M-331.138,1812.355l11.96-22.554c1.17-2.275,1.17-3.575,1.17-6.109,0-2.34,0-5.136-3.25-5.136a3.025,3.025,0,0,0-3.251,3.315v3.771h-6.63V1782a10.015,10.015,0,0,1,9.946-10.076c6.889,0,9.814,5.46,9.814,11.636,0,4.485-.13,5.655-2.21,9.619l-9.749,18.785h11.959v6.63h-19.76Z" transform="translate(331.14 -1771.93)" fill="#fff"/>
        </g>
        <g transform="matrix(1, 0, 0, 1, 0, 0)" filter="url(#Path_29993)">
          <path id="Path_29993-2" data-name="Path 29993" d="M-312.538,1781.871a9.609,9.609,0,0,1,9.879-9.944,9.61,9.61,0,0,1,9.881,9.944v27.171a9.61,9.61,0,0,1-9.881,9.944,9.608,9.608,0,0,1-9.879-9.944Zm6.63,27.171a3.193,3.193,0,0,0,3.25,3.313,3.194,3.194,0,0,0,3.25-3.313v-27.171a3.2,3.2,0,0,0-3.25-3.315,3.2,3.2,0,0,0-3.25,3.315Z" transform="translate(336.72 -1771.93)" fill="#fff"/>
        </g>
        <g transform="matrix(1, 0, 0, 1, 0, 0)" filter="url(#Path_29994)">
          <path id="Path_29994-2" data-name="Path 29994" d="M-293.938,1812.355l11.959-22.554c1.17-2.275,1.17-3.575,1.17-6.109,0-2.34,0-5.136-3.25-5.136a3.024,3.024,0,0,0-3.25,3.315v3.771h-6.63V1782a10.014,10.014,0,0,1,9.944-10.076c6.89,0,9.814,5.46,9.814,11.636,0,4.485-.13,5.655-2.21,9.619l-9.749,18.785h11.959v6.63h-19.759Z" transform="translate(342.29 -1771.93)" fill="#fff"/>
        </g>
        <g transform="matrix(1, 0, 0, 1, 0, 0)" filter="url(#Path_29995)">
          <path id="Path_29995-2" data-name="Path 29995" d="M-275.338,1812.355l11.959-22.554c1.17-2.275,1.17-3.575,1.17-6.109,0-2.34,0-5.136-3.25-5.136a3.024,3.024,0,0,0-3.25,3.315v3.771h-6.63V1782a10.014,10.014,0,0,1,9.944-10.076c6.89,0,9.814,5.46,9.814,11.636,0,4.485-.129,5.655-2.21,9.619l-9.749,18.785h11.959v6.63h-19.759Z" transform="translate(347.87 -1771.93)" fill="#fff"/>
        </g>
      </g>
      <g id="Group_31031" data-name="Group 31031" transform="translate(-229.256 1781.064)" style="isolation: isolate">
        <g transform="matrix(1, 0, 0, 1, -101.88, -9.14)" filter="url(#Path_29996)">
          <path id="Path_29996-2" data-name="Path 29996" d="M-214.578,1809.071H-228.8v8.9h-5.116v-8.9h-18.717v-4.742h6.572V1793.39h12.145v-4.95h-8.9a37.406,37.406,0,0,1-5.657,7.569,38.363,38.363,0,0,0-4.284-3.2c3.744-3.16,6.947-8.484,8.735-13.85l5.033,1.289a26.749,26.749,0,0,1-1.373,3.411h23.5v4.783H-228.8v4.95h10.982v4.616H-228.8v6.323h14.225Zm-19.341-4.742v-6.323h-7.195v6.323Z" transform="translate(354.64 -1769.82)" fill="#fff"/>
        </g>
      </g>
      <g id="Group_31032" data-name="Group 31032" transform="translate(-184.578 1771.927)" style="isolation: isolate">
        <g transform="matrix(1, 0, 0, 1, -146.56, 0)" filter="url(#Path_29997)">
          <path id="Path_29997-2" data-name="Path 29997" d="M-211.762,1779.246l-6.63,4.876v-7.02l6.63-4.876h6.631v46.279h-6.631Z" transform="translate(364.95 -1771.84)" fill="#fff"/>
        </g>
        <g transform="matrix(1, 0, 0, 1, -146.56, 0)" filter="url(#Path_29998)">
          <path id="Path_29998-2" data-name="Path 29998" d="M-200.742,1781.871a9.609,9.609,0,0,1,9.879-9.944,9.609,9.609,0,0,1,9.879,9.944v27.171a9.608,9.608,0,0,1-9.879,9.944,9.608,9.608,0,0,1-9.879-9.944Zm6.63,27.171a3.193,3.193,0,0,0,3.25,3.313,3.193,3.193,0,0,0,3.25-3.313v-27.171a3.2,3.2,0,0,0-3.25-3.315,3.2,3.2,0,0,0-3.25,3.315Z" transform="translate(370.24 -1771.93)" fill="#fff"/>
        </g>
      </g>
      <g id="Group_31033" data-name="Group 31033" transform="translate(-134.51 1783.145)" style="isolation: isolate">
        <g transform="matrix(1, 0, 0, 1, -196.63, -11.22)" filter="url(#Path_29999)">
          <path id="Path_29999-2" data-name="Path 29999" d="M-145.976,1811.127c0,3-.707,4.409-2.621,5.241-2,.874-4.908.957-9.193.957a21.219,21.219,0,0,0-2.08-5.2c2.912.166,6.406.123,7.321.123,1,0,1.331-.331,1.331-1.205v-6.032h-17.8c-1.082,4.658-3.161,9.192-7.03,12.436a19.474,19.474,0,0,0-3.826-3.576c6.28-5.366,6.862-13.311,6.862-19.634v-13.683h27.037Zm-5.241-10.9v-5.075H-167.9c-.042,1.581-.125,3.328-.291,5.075Zm-16.679-14.849v5.075h16.679v-5.075Z" transform="translate(376.5 -1769.34)" fill="#fff"/>
        </g>
      </g>
      <g id="Group_31034" data-name="Group 31034" transform="translate(-87.803 1771.927)" style="isolation: isolate">
        <g transform="matrix(1, 0, 0, 1, -243.34, 0)" filter="url(#Path_30000)">
          <path id="Path_30000-2" data-name="Path 30000" d="M-143.944,1812.355l11.96-22.554c1.17-2.275,1.17-3.575,1.17-6.109,0-2.34,0-5.136-3.25-5.136a3.025,3.025,0,0,0-3.251,3.315v3.771h-6.63V1782A10.015,10.015,0,0,1-134,1771.927c6.89,0,9.814,5.46,9.814,11.636,0,4.485-.13,5.655-2.21,9.619l-9.749,18.785h11.959v6.63h-19.76Z" transform="translate(387.28 -1771.93)" fill="#fff"/>
        </g>
        <g transform="matrix(1, 0, 0, 1, -243.34, 0)" filter="url(#Path_30001)">
          <path id="Path_30001-2" data-name="Path 30001" d="M-113.4,1811.615h-13.194v-6.238l9.554-33.15h7.02l-9.944,33.15h6.565v-13.2h6.631v13.2h3.183v6.238h-3.183v6.891H-113.4Z" transform="translate(392.48 -1771.84)" fill="#fff"/>
        </g>
      </g>
      <g id="Group_31035" data-name="Group 31035" transform="translate(-31.052 1781.23)" style="isolation: isolate">
        <g transform="matrix(1, 0, 0, 1, -300.09, -9.3)" filter="url(#Path_30002)">
          <path id="Path_30002-2" data-name="Path 30002" d="M-71.378,1780.972v35.771H-76.7v-2.62H-95.171v2.7h-5.116v-35.854Zm-23.792,4.991v8.942H-76.7v-8.942Zm18.468,23.168v-9.318H-95.171v9.318Z" transform="translate(400.37 -1769.21)" fill="#fff"/>
        </g>
        <g transform="matrix(1, 0, 0, 1, -300.09, -9.3)" filter="url(#Path_30003)">
          <path id="Path_30003-2" data-name="Path 30003" d="M-55.728,1781.378A50.664,50.664,0,0,1-67,1798.307a32.166,32.166,0,0,0-4.742-3.7c4.285-3.37,8.195-9.068,10.356-14.85Zm11.563,19.466A95.34,95.34,0,0,1-34.6,1815.2l-5.158,2.7a28.264,28.264,0,0,0-1.705-3.328c-9.982.666-20.464,1.29-27.784,1.622l-.666-5.2,5.781-.207a101.776,101.776,0,0,0,7.113-16.805l5.948,1.373a156.04,156.04,0,0,1-7.4,15.183c4.492-.209,9.359-.459,14.183-.707-1.5-2.33-3.161-4.7-4.7-6.739Zm-.582-21.005a55.926,55.926,0,0,0,10.939,14.183,25.6,25.6,0,0,0-4.158,4.328A86.53,86.53,0,0,1-49.7,1781.877Z" transform="translate(408.93 -1769.58)" fill="#fff"/>
        </g>
        <g transform="matrix(1, 0, 0, 1, -300.09, -9.3)" filter="url(#Path_30004)">
          <path id="Path_30004-2" data-name="Path 30004" d="M-33.829,1794.993v22.543h-4.825v-37.267H-22.64v14.724Zm0-11.189v2.121H-27.3V1783.8Zm6.529,7.612v-2.247h-6.529v2.247Zm12.188,16.761v8.569h-4.327v-8.569h-3.992c-.416,2.87-1.789,6.905-5.324,9.318a18.726,18.726,0,0,0-3.161-2.829,9.746,9.746,0,0,0,4.243-6.489h-4.2v-4.034h4.366v-3.12h-3.785v-3.909H-11.2v3.909h-3.909v3.12h4.574v4.034Zm-4.327-4.034v-3.12h-3.867v3.12Zm15.849,7.611c0,2.537-.458,3.91-1.955,4.7-1.5.832-3.661.957-6.822.957a17.639,17.639,0,0,0-1.5-4.908c1.871.084,3.909.084,4.533.043.666,0,.874-.251.874-.833v-16.638H-19.895v-14.806h16.3Zm-11.6-27.95v2.121h6.737V1783.8Zm6.737,7.694v-2.329h-6.737v2.329Z" transform="translate(418.86 -1769.43)" fill="#fff"/>
        </g>
        <g transform="matrix(1, 0, 0, 1, -300.09, -9.3)" filter="url(#Path_30005)">
          <path id="Path_30005-2" data-name="Path 30005" d="M30.339,1795.8a55.349,55.349,0,0,1-6.656,10.856l-4.243-2.453a52.533,52.533,0,0,0,3.245-5.116H13.91v12.935c0,2.621-.584,3.869-2.579,4.576-1.913.707-4.617.749-8.195.749a16.837,16.837,0,0,0-1.789-4.741c2.454.082,5.532.082,6.364.082.79-.04,1.04-.207,1.04-.832v-12.769H-7.678v-4.7H11.247c-3.078-1.288-6.448-2.621-9.11-3.618l2.454-3.744c1.872.666,4.2,1.456,6.531,2.33a43.3,43.3,0,0,0,5.283-3.91H-3.685v-4.534H21.188l1.123-.291,3.536,2.787a68.652,68.652,0,0,1-9.608,7.9c1.371.541,2.619,1,3.576,1.456l-1,1.621h6.572l.915-.333Z" transform="translate(428.15 -1769.32)" fill="#fff"/>
        </g>
        <g transform="matrix(1, 0, 0, 1, -300.09, -9.3)" filter="url(#Path_30006)">
          <path id="Path_30006-2" data-name="Path 30006" d="M45.849,1812.276a42.968,42.968,0,0,0,4.742.251c2.245,0,9.108,0,11.9-.125a18.486,18.486,0,0,0-1.747,5.032H50.34c-7.653,0-13.351-1.248-17.178-7.155a20.817,20.817,0,0,1-5.532,7.862,30.19,30.19,0,0,0-4.075-3.37c4.492-3.326,6.531-9.067,7.278-16.18l5.158.5c-.25,1.87-.541,3.617-.915,5.281a11.2,11.2,0,0,0,5.657,6.531v-14.682H31.873v-4.7H54.749v4.7h-8.9v5.2H57.287v4.659H45.849Zm-15.433-18.634H25.551v-10.4h15.1v-4.16H45.89v4.16H61.114v10.4H56v-5.7H30.416Z" transform="translate(437.51 -1769.78)" fill="#fff"/>
        </g>
      </g>
    </g>
  </g>
</svg>
